<ttFont>
<head>
    <!-- Most of this table will be recalculated by the compiler -->
    <tableVersion value="1.0"/>
    <fontRevision value="3.0"/>
    <checkSumAdjustment value="0x72c8cc66"/>
    <magicNumber value="0x5f0f3cf5"/>
    <flags value="00000000 00000011"/>
    <unitsPerEm value="1000"/>
    <created value="Thu Aug 10 00:28:05 2017"/>
    <modified value="Thu Aug 10 00:28:05 2017"/>
    <xMin value="-642"/>
    <yMin value="-627"/>
    <xMax value="2486"/>
    <yMax value="1135"/>
    <macStyle value="00000000 00000010"/>
    <lowestRecPPEM value="3"/>
    <fontDirectionHint value="2"/>
    <indexToLocFormat value="0"/>
    <glyphDataFormat value="0"/>
  </head>
          <CharString index="0">
            -107 callgsubr
            395 -95 callsubr
            -25 -61 callsubr
            return
          </CharString>
          <CharString index="1">
            -78 callgsubr
            39 20 -28 -44 -8 hvcurveto
            -54 -9 -39 -26 -40 hhcurveto
            -8 -12 1 1 -5 hvcurveto
            -32 -176 rlineto
            -1 10 18 -1 7 hhcurveto
            174 -5 116 100 27 151 return
          </CharString>
          <CharString index="2">
            hvcurveto
            -105 callgsubr
            return
          </CharString>
          <CharString index="3">
            -107 callgsubr
            248 -98 callgsubr
            return
          </CharString>
          <CharString index="4">
            98 callsubr
            -35 -6 -27 -22 -32 hhcurveto
            -6 -6 1 1 -3 hvcurveto
            -28 -158 rlineto
            -7 26 20 -2 24 hhcurveto
            118 98 73 144 27 hvcurveto
            128 153 callsubr
            377 -87 callsubr
            return
          </CharString>
          <CharString index="5">
            rmoveto
            -72 -33 38 44 3 247 callgsubr
            279 callgsubr
            -80 -14 -54 -63 -90 hhcurveto
            return
          </CharString>
          <CharString index="6">
            30 169 rlineto
            return
          </CharString>
          <CharString index="7">
            rmoveto
            -24 256 callgsubr
            -32 -6 -18 -26 -37 hhcurveto
            return
          </CharString>
          <CharString index="8">
            50 43 37 48 9 hvcurveto
            50 9 -31 37 -50 hhcurveto
            -48 -43 -37 -50 -9 hvcurveto
            -48 -9 31 -37 48 hhcurveto
            return
          </CharString>
          <CharString index="9">
            32 5 29 24 34 hhcurveto
            33 18 -24 -32 -5 -82 callsubr
            return
          </CharString>
          <CharString index="10">
            27 41 hhcurveto
            38 24 -26 -39 -7 hvcurveto
            -2 vlineto
            -6 -32 -30 -27 -40 -1 rrcurveto
            return
          </CharString>
          <CharString index="11">
            397 rmoveto
            33 27 -18 -45 -8 hvcurveto
            -133 hlineto
            43 14 28 20 39 hhcurveto
            242 -194 rmoveto
            -235 hlineto
            -17 -11 -18 -16 -29 hhcurveto
            -31 -23 13 60 7 hvcurveto
            354 hlineto
            6 14 4 16 3 14 rrcurveto
            177 31 -100 107 -169 hhcurveto
            -168 -138 -105 -173 -31 hvcurveto
            -187 -33 100 -113 168 hhcurveto
            152 116 90 120 45 hvcurveto
            return
          </CharString>
          <CharString index="12">
            223 callgsubr
            rlineto
            32 -23 -41 19 -59 hhcurveto
            -136 -90 -93 -137 -24 hvcurveto
            -137 return
          </CharString>
          <CharString index="13">
            rmoveto
            -49 -24 34 42 7 hvcurveto
            42 7 36 34 49 hhcurveto
            46 26 -31 -44 -8 hvcurveto
            -44 -8 -36 -33 -46 hhcurveto
            return
          </CharString>
          <CharString index="14">
            32 177 rlineto
            -1 -8 -7 -1 -7 hhcurveto
            -48 -26 28 52 9 hvcurveto
            44 8 return
          </CharString>
          <CharString index="15">
            rmoveto
            -53 -18 37 46 10 hvcurveto
            31 181 rlineto
            145 hlineto
            -33 -189 rlineto
            -42 -10 -26 -33 -46 hhcurveto
            return
          </CharString>
          <CharString index="16">
            232 callgsubr
            204 hlineto
            101 571 rlineto
            return
          </CharString>
          <CharString index="17">
            -22 -123 rlineto
            199 hlineto
            55 311 rlineto
            -189 hlineto
            -35 -6 -24 -28 -39 hhcurveto
            -37 -19 24 38 7 hvcurveto
            41 7 33 29 52 hhcurveto
            198 174 callsubr
            return
          </CharString>
          <CharString index="18">
            rmoveto
            108 hlineto
            33 12 18 14 24 40 31 -45 65 hhcurveto
            82 65 47 128 45 hvcurveto
            -109 hlineto
            -32 -11 -18 -15 -24 -40 -31 46 -65 hhcurveto
            -82 -65 -48 -128 -45 hvcurveto
            return
          </CharString>
          <CharString index="19">
            302 rmoveto
            -192 -34 114 -117 177 hhcurveto
            165 144 101 168 30 hvcurveto
            192 34 -113 117 -174 hhcurveto
            -167 -146 -101 -168 -30 hvcurveto
            371 -20 rmoveto
            -67 -12 -39 -30 -39 hhcurveto
            -40 -28 30 67 12 hvcurveto
            67 12 39 30 39 hhcurveto
            39 29 -30 -67 -12 hvcurveto
            return
          </CharString>
          <CharString index="20">
            hlineto
            -101 callsubr
            return
          </CharString>
          <CharString index="21">
            -151 -28 80 -117 177 -78 callgsubr
            return
          </CharString>
          <CharString index="22">
            -33 callgsubr
            92 hlineto
            -57 -322 -86 callgsubr
            return
          </CharString>
          <CharString index="23">
            564 rmoveto
            -222 hlineto
            -53 -304 rlineto
            5 vlineto
            -54 -9 -36 -33 -49 hhcurveto
            -48 -25 33 54 9 hvcurveto
            53 299 rlineto
            -221 hlineto
            -58 -327 rlineto
            -146 -25 59 -95 130 hhcurveto
            85 63 41 49 41 hvcurveto
            -15 return
          </CharString>
          <CharString index="24">
            rmoveto
            -114 -26 30 40 7 hvcurveto
            28 5 24 23 38 hhcurveto
            15 hlineto
            29 162 rlineto
            -19 hlineto
            -36 -7 25 33 6 hvcurveto
            7 41 rlineto
            215 hlineto
            -10 -55 -70 -24 -55 -54 -15 -88 rlinecurve
            -7 -39 1 -32 2 -19 rrcurveto
            166 hlineto
            -2 21 0 24 4 22 rrcurveto
            32 6 15 24 25 hhcurveto
            25 4 -29 -29 -5 hvcurveto
            -93 -17 -71 -43 -140 hhcurveto
            return
          </CharString>
          <CharString index="25">
            hvcurveto
            -33 -6 -27 -23 -33 hhcurveto
            -34 -20 23 33 6 hvcurveto
            return
          </CharString>
          <CharString index="26">
            -93 callsubr
            28 133 callsubr
            7 -96 callgsubr
            return
          </CharString>
          <CharString index="27">
            309 rmoveto
            -209 -37 111 -107 177 hhcurveto
            177 162 107 209 37 hvcurveto
            70 399 rlineto
            -221 hlineto
            -70 -399 rlineto
            -61 -11 -35 -45 -67 hhcurveto
            -67 -16 45 61 11 hvcurveto
            70 399 rlineto
            -221 hlineto
            return
          </CharString>
          <CharString index="28">
            -151 -28 80 -117 177 -33 callsubr
            -93 callsubr
            return
          </CharString>
          <CharString index="29">
            -5 callgsubr
            endchar
          </CharString>
          <CharString index="30">
            hlineto
            -67 callgsubr
            return
          </CharString>
          <CharString index="31">
            hhcurveto
            136 108 78 125 27 299 callsubr
            -22 -10 -23 -14 -25 hhcurveto
            -26 -27 18 50 9 hvcurveto
            47 8 33 19 25 hhcurveto
            28 19 -17 -23 -1 hvcurveto
            195 hlineto
            99 15 -72 101 -154 hhcurveto
            -8 -8 0 -1 -8 hvcurveto
            -4 5 0 6 1 6 rrcurveto
            20 3 16 8 19 hhcurveto
            167 hlineto
            endchar
          </CharString>
          <CharString index="32">
            208 -100 callsubr
            return
          </CharString>
          <CharString index="33">
            -131 -23 80 -88 145 -55 callsubr
            return
          </CharString>
          <CharString index="34">
            106 18 -67 71 -110 hhcurveto
            -107 -81 -48 -90 -15 308 callsubr
            -16 -15 vvcurveto
            142 hlineto
            2 0 9 2 6 vhcurveto
            13 4 10 8 14 hhcurveto
            14 10 -11 -17 -3 hvcurveto
            -45 -8 -49 -18 -58 hhcurveto
            -105 -27 60 70 13 hvcurveto
            88 15 78 48 89 hhcurveto
            return
          </CharString>
          <CharString index="35">
            6 callgsubr
            -156 -88 -91 -113 -20 hvcurveto
            -64 callsubr
            return
          </CharString>
          <CharString index="36">
            10 42 hhcurveto
            52 hlineto
            29 163 rlineto
            -92 hlineto
            -37 -43 9 53 12 hvcurveto
            22 5 13 14 18 hhcurveto
            30 -1 -30 -21 -5 hvcurveto
            149 hlineto
            136 41 -65 85 -137 hhcurveto
            return
          </CharString>
          <CharString index="37">
            -59 callgsubr
            301 hlineto
            -17 -95 -19 19 -30 12 -42 2 rlinecurve
            -106 5 -91 -75 -20 -116 -7 -42 2 -40 9 -35 rrcurveto
            -21 -17 -31 -19 -50 hhcurveto
            return
          </CharString>
          <CharString index="38">
            -19 callsubr
            -205 hlineto
            -28 -155 rlineto
            -148 -27 90 264 callgsubr
            return
          </CharString>
          <CharString index="39">
            53 callgsubr
            rlineto
            -188 -33 106 -118 201 hhcurveto
            return
          </CharString>
          <CharString index="40">
            hlineto
            -7 -41 rlineto
            -6 hlineto
            -165 -138 -91 -164 -30 hvcurveto
            -180 -31 -66 callsubr
            return
          </CharString>
          <CharString index="41">
            131 -114 193 hhcurveto
            177 106 76 126 24 hvcurveto
            -73 callsubr
            return
          </CharString>
          <CharString index="42">
            rmoveto
            -40 -1 -25 28 7 36 rrcurveto
            37 return
          </CharString>
          <CharString index="43">
            -2 -12 -1 -14 1 -10 rrcurveto
            204 hlineto
            -1 10 1 9 2 9 rrcurveto
            22 4 14 17 20 -9 callgsubr
            return
          </CharString>
          <CharString index="44">
            -92 callsubr
            704 1 callgsubr
            return
          </CharString>
          <CharString index="45">
            326 -47 callgsubr
            return
          </CharString>
          <CharString index="46">
            75 -43 callsubr
            return
          </CharString>
          <CharString index="47">
            hhcurveto
            32 hlineto
            39 11 -15 -20 -4 hvcurveto
            -23 -4 -23 -11 -27 hhcurveto
            -20 -31 7 34 3 hvcurveto
            -203 hlineto
            return
          </CharString>
          <CharString index="48">
            -28 80 -117 177 47 callsubr
            return
          </CharString>
          <CharString index="49">
            144 callsubr
            37 hhcurveto
            37 43 callgsubr
            return
          </CharString>
          <CharString index="50">
            37 callgsubr
            rlineto
            -142 -28 72 -112 145 hhcurveto
            49 40 14 25 33 hvcurveto
            0 callsubr
            return
          </CharString>
          <CharString index="51">
            rmoveto
            -12 -67 rlineto
            -79 -14 -41 -16 -45 hhcurveto
            -41 -22 15 29 -1 hvcurveto
            -218 hlineto
            -143 93 -93 181 205 98 138 149 26 vhcurveto
            98 554 rlineto
            -221 hlineto
            -14 -77 rlineto
            51 -18 -53 156 callgsubr
            60 236 callgsubr
            36 205 rmoveto
            -62 -11 -42 -33 -46 hhcurveto
            -46 -30 33 62 11 hvcurveto
            62 11 42 33 46 hhcurveto
            46 30 -33 -62 -11 hvcurveto
            return
          </CharString>
          <CharString index="52">
            -31 callgsubr
            26 175 callgsubr
            return
          </CharString>
          <CharString index="53">
            hlineto
            -61 -351 rlineto
            -127 hlineto
            -12 11 -14 8 -18 6 1 4 rcurveline
            63 25 45 51 12 70 rrcurveto
            112 20 -69 73 -134 hhcurveto
            -138 -101 -87 -123 -22 hvcurveto
            187 hlineto
            21 4 17 17 23 hhcurveto
            22 11 -16 -24 -4 hvcurveto
            -31 -6 -29 -13 -31 hhcurveto
            return
          </CharString>
          <CharString index="54">
            471 -50 callsubr
            return
          </CharString>
          <CharString index="55">
            hhcurveto
            52 48 17 35 37 hvcurveto
            -16 -93 rlineto
            199 hlineto
            return
          </CharString>
          <CharString index="56">
            -25 -14 18 26 5 hvcurveto
            42 236 rlineto
            82 hlineto
            -42 -236 rlineto
            -26 -5 -16 -18 -27 hhcurveto
            return
          </CharString>
          <CharString index="57">
            114 callsubr
            -399 -363 -100 callsubr
            return
          </CharString>
          <CharString index="58">
            -61 -19 42 52 10 hvcurveto
            30 170 rlineto
            161 235 callgsubr
            -50 -11 -29 -35 -50 hhcurveto
            401 1 callgsubr
            return
          </CharString>
          <CharString index="59">
            -28 -68 callgsubr
            return
          </CharString>
          <CharString index="60">
            rmoveto
            -58 callsubr
            return
          </CharString>
          <CharString index="61">
            -47 callsubr
            253 69 rmoveto
            5 28 rlineto
            return
          </CharString>
          <CharString index="62">
            hlineto
            -8 -48 rlineto
            -75 -13 -41 -42 -97 hhcurveto
            -19 223 callgsubr
            return
          </CharString>
          <CharString index="63">
            -107 callgsubr
            68 hlineto
            return
          </CharString>
          <CharString index="64">
            -103 119 -73 callgsubr
            return
          </CharString>
          <CharString index="65">
            -3 hlineto
            54 -21 -53 40 -89 hhcurveto
            return
          </CharString>
          <CharString index="66">
            rmoveto
            24 4 16 10 18 hhcurveto
            21 19 -11 -45 -4 hvcurveto
            239 hlineto
            140 -4 -81 89 -189 hhcurveto
            -136 -122 -60 -116 -21 hvcurveto
            -49 -273 345 38 -19 -108 rrcurveto
            -24 -4 -18 -11 -22 hhcurveto
            -22 -27 9 52 5 hvcurveto
            -236 hlineto
            -149 2 102 -85 174 hhcurveto
            160 106 82 104 18 hvcurveto
            49 272 -342 -38 18 100 rrcurveto
            return
          </CharString>
          <CharString index="67">
            rmoveto
            -217 -38 112 -153 223 hhcurveto
            193 108 87 105 65 hvcurveto
            39 222 rlineto
            -361 hlineto
            -28 -157 rlineto
            177 hlineto
            -44 -41 -44 -18 -50 hhcurveto
            -109 -40 55 110 19 hvcurveto
            94 17 59 61 86 hhcurveto
            46 29 -17 -27 12 hvcurveto
            234 hlineto
            141 -5 -94 108 -188 hhcurveto
            -222 -163 -145 -205 -36 hvcurveto
            return
          </CharString>
          <CharString index="68">
            -107 callsubr
            196 hlineto
            47 266 rlineto
            43 7 28 235 callsubr
            -28 -29 -4 hvcurveto
            -10 -60 rlineto
            -128 -22 71 -104 154 78 callsubr
            return
          </CharString>
          <CharString index="69">
            rlineto
            -44 -8 -19 -23 -31 hhcurveto
            -32 -12 23 44 8 hvcurveto
            return
          </CharString>
          <CharString index="70">
            rmoveto
            -41 callgsubr
            return
          </CharString>
          <CharString index="71">
            hlineto
            13 27 8 29 5 29 return
          </CharString>
          <CharString index="72">
            -126 -126 257 callsubr
            140 156 308 callgsubr
            -30 214 rmoveto
            -42 -21 27 36 7 hvcurveto
            37 7 31 27 41 hhcurveto
            38 22 -24 -34 -3 hvcurveto
            -2 -7 rlineto
            -35 -6 -33 -27 -39 hhcurveto
            return
          </CharString>
          <CharString index="73">
            rmoveto
            -151 88 -25 -144 151 -85 180 85 25 144 rlineto
            endchar
          </CharString>
          <CharString index="74">
            hhcurveto
            7 9 0 1 14 hvcurveto
            return
          </CharString>
          <CharString index="75">
            221 callsubr
            -23 -129 rlineto
            -25 -4 -9 -31 -29 hhcurveto
            -26 -4 22 34 6 hvcurveto
            6 32 rlineto
            -197 hlineto
            -3 -11 121 callgsubr
            -154 -28 94 -74 138 hhcurveto
            160 83 102 136 23 hvcurveto
            20 120 rlineto
            return
          </CharString>
          <CharString index="76">
            873 728 503 291 callsubr
            404 194 callsubr
            -39 -38 -6 -12 -36 hvcurveto
            31 -22 -38 19 -57 hhcurveto
            -437 -289 -106 callgsubr
            614 -6 -23 callsubr
            -1561 -107 callsubr
            196 hlineto
            47 268 rlineto
            -1 vlineto
            46 8 26 27 38 hhcurveto
            41 10 -31 -30 -5 hvcurveto
            -2 -8 -2 -8 -1 -8 rrcurveto
            -131 -23 80 -88 145 -13 callgsubr
            return
          </CharString>
          <CharString index="77">
            -13 callgsubr
            endchar
          </CharString>
          <CharString index="78">
            hhcurveto
            -55 -59 16 49 -9 hvcurveto
            178 10 90 100 21 118 rrcurveto
            135 24 -77 81 -128 hhcurveto
            -149 -102 -107 -136 -6 hvcurveto
            183 hlineto
            35 -3 12 35 32 hhcurveto
            17 10 -16 -20 -3 hvcurveto
            -69 -10 -70 -23 -108 hhcurveto
            -80 hlineto
            return
          </CharString>
          <CharString index="79">
            hhcurveto
            -60 hlineto
            -22 -126 rlineto
            65 hlineto
            58 41 0 -88 43 hvcurveto
            39 -47 -26 0 -87 hhcurveto
            -56 hlineto
            -22 -125 rlineto
            61 hlineto
            return
          </CharString>
          <CharString index="80">
            208 -46 callsubr
            98 hlineto
            -54 -305 -86 callgsubr
            78 87 callgsubr
            -282 182 callgsubr
            -98 6 callgsubr
            return
          </CharString>
          <CharString index="81">
            rmoveto
            -51 callsubr
            return
          </CharString>
          <CharString index="82">
            -60 callsubr
            -129 -16 115 -64 141 hhcurveto
            150 88 65 113 20 hvcurveto
            18 callsubr
          </CharString>
          <CharString index="83">
            rmoveto
            53 9 -33 42 -53 hhcurveto
            -52 -48 -42 -53 -9 hvcurveto
            -51 -9 33 -41 52 hhcurveto
            53 48 41 51 9 hvcurveto
            return
          </CharString>
          <CharString index="84">
            185 callgsubr
            17 100 rlineto
            95 hlineto
            281 hmoveto
            -101 callsubr
            return
          </CharString>
          <CharString index="85">
            24 callgsubr
            440 hlineto
            -6 -31 -6 -38 -8 -36 -24 -23 rlinecurve
            41 -32 -54 22 -68 hhcurveto
            -135 -115 0 callgsubr
            677 66 -102 callsubr
            473 339 rmoveto
            30 169 rlineto
            -1451 -68 callsubr
            104 79 47 61 50 hvcurveto
            -5 20 22 -2 22 hhcurveto
            55 54 15 29 44 hvcurveto
            -46 34 58 -27 83 hhcurveto
            71 88 callgsubr
          </CharString>
          <CharString index="86">
            -107 callgsubr
            649 hlineto
            -9 -51 -9 -51 -21 -41 -69 -12 rlinecurve
            49 -41 -72 27 -105 hhcurveto
            -156 -142 -67 -168 -29 hvcurveto
            90 callsubr
            return
          </CharString>
          <CharString index="87">
            221 hlineto
            58 327 rlineto
            146 25 -59 95 -130 hhcurveto
            -85 -63 -41 -49 -41 hvcurveto
            15 86 115 callsubr
            -99 -564 115 callgsubr
            53 304 rlineto
            -5 vlineto
            54 9 36 33 49 hhcurveto
            48 25 -33 -54 -9 hvcurveto
            return
          </CharString>
          <CharString index="88">
            -28 -156 -38 callsubr
            28 156 rlineto
            return
          </CharString>
          <CharString index="89">
            hmoveto
            234 hlineto
            -134 708 rlineto
            -256 hlineto
            -383 -708 rlineto
            233 hlineto
            54 107 rlineto
            236 hlineto
            return
          </CharString>
          <CharString index="90">
            24 callgsubr
            691 173 callsubr
            -59 -58 -12 -28 -49 hvcurveto
            38 -32 -54 20 -72 hhcurveto
            -134 -106 284 callsubr
            -38 3 -34 10 -28 rrcurveto
            -18 -19 -29 -16 -45 hhcurveto
            1090 405 rmoveto
            -101 callsubr
            -1391 hlineto
            -30 -169 rlineto
            214 177 callsubr
            20 -2 20 hhcurveto
            38 35 5 12 32 hvcurveto
            -75 30 77 -33 92 -22 callgsubr
          </CharString>
          <CharString index="91">
            -69 callgsubr
            312 hlineto
            -47 -269 -86 callgsubr
            return
          </CharString>
          <CharString index="92">
            46 callsubr
            -37 -213 5 callgsubr
            return
          </CharString>
          <CharString index="93">
            129 callgsubr
            28 7 17 hhcurveto
            36 14 -32 -39 -7 hvcurveto
            -41 -7 -26 -31 -36 hhcurveto
            -17 -24 7 31 -4 hvcurveto
            -192 hlineto
            -137 -18 93 -72 130 hhcurveto
            return
          </CharString>
          <CharString index="94">
            520 233 rmoveto
            -100 callgsubr
            return
          </CharString>
          <CharString index="95">
            hlineto
            -54 -305 -2 callgsubr
            return
          </CharString>
          <CharString index="96">
            746 -62 callsubr
            433 202 rmoveto
            -53 -46 -17 -31 -34 hvcurveto
            206 callsubr
            533 173 callsubr
            -59 -58 -10 -22 -51 hvcurveto
            33 -25 -38 20 -53 hhcurveto
            700 62 rmoveto
            -101 callsubr
            -1435 -57 callsubr
            43 245 rlineto
            0 vlineto
            62 11 28 33 44 hhcurveto
            46 9 -37 -49 -9 hvcurveto
            0 vlineto
            -2 -1 -2 -2 vvcurveto
            -70 callgsubr
            111 hlineto
            -55 -314 -57 callgsubr
            return
          </CharString>
          <CharString index="97">
            rmoveto
            25 -18 17 -25 -25 -18 -17 -25 -25 18 -17 25 25 18 17 25 vhcurveto
            return
          </CharString>
          <CharString index="98">
            hmoveto
            276 hlineto
            152 402 12 -402 rlineto
            276 hlineto
            286 708 rlineto
            -239 hlineto
            -143 -446 -17 446 rlineto
            -242 hlineto
            -174 -446 14 446 rlineto
            -239 hlineto
            return
          </CharString>
          <CharString index="99">
            301 callgsubr
            32 -30 -45 20 -58 hhcurveto
            return
          </CharString>
          <CharString index="100">
            hhcurveto
            -83 -60 -37 -56 -36 14 callsubr
            return
          </CharString>
          <CharString index="101">
            rmoveto
            -51 -19 37 46 10 hvcurveto
            31 181 rlineto
            145 hlineto
            -34 -194 rlineto
            -39 -11 -26 -31 -45 hhcurveto
            632 -49 rmoveto
            -31 -14 23 44 8 hvcurveto
            1 6 rlineto
            84 15 -39 98 -132 hhcurveto
            -56 -49 -20 -34 -35 hvcurveto
            20 112 rlineto
            680 hlineto
            -16 -90 rlineto
            -267 hlineto
            -28 -156 rlineto
            -44 -8 -18 -23 -31 hhcurveto
            647 313 rmoveto
            -101 callsubr
            -1580 -57 callsubr
            45 258 rlineto
            51 10 27 31 41 hhcurveto
            40 11 -27 -28 -3 hvcurveto
            -2 vlineto
            -107 -13 76 -96 151 hhcurveto
            147 103 91 137 30 hvcurveto
            69 hlineto
            -54 -308 14 callgsubr
          </CharString>
          <CharString index="102">
            hhcurveto
            70 58 20 34 44 hvcurveto
            -21 -117 140 callsubr
            -721 19 callgsubr
            128 146 callgsubr
            -57 -10 -17 -12 -66 hhcurveto
            return
          </CharString>
          <CharString index="103">
            41 callgsubr
            413 51 rmoveto
            30 169 rlineto
            return
          </CharString>
          <CharString index="104">
            306 571 79 callgsubr
            return
          </CharString>
          <CharString index="105">
            419 1 callsubr
            return
          </CharString>
          <CharString index="106">
            -99 callgsubr
            684 305 rmoveto
            -101 callsubr
            return
          </CharString>
          <CharString index="107">
            -31 -175 157 callsubr
            return
          </CharString>
          <CharString index="108">
            rmoveto
            -43 -234 353 51 -14 -68 rrcurveto
            -13 -3 -10 -9 -30 hhcurveto
            -37 -39 10 39 3 hvcurveto
            -217 hlineto
            -131 9 108 -71 155 hhcurveto
            159 85 66 84 16 hvcurveto
            44 231 -356 -42 11 65 rrcurveto
            16 3 17 4 23 hhcurveto
            35 32 -11 -37 4 hvcurveto
            217 hlineto
            114 -13 -80 88 -176 hhcurveto
            -159 -83 -70 -82 -14 hvcurveto
            return
          </CharString>
          <CharString index="109">
            hlineto
            -16 callgsubr
            -25 97 195 callgsubr
            104 206 callgsubr
            33 -2 28 -6 24 rrcurveto
            return
          </CharString>
          <CharString index="110">
            204 hlineto
            return
          </CharString>
          <CharString index="111">
            rmoveto
            63 37 -45 -62 -10 hvcurveto
            -1 -8 -3 -8 -2 -7 -147 113 rcurveline
            11 19 21 6 23 hhcurveto
            return
          </CharString>
          <CharString index="112">
            hhcurveto
            53 43 15 26 34 hvcurveto
            -31 -177 14 callgsubr
          </CharString>
          <CharString index="113">
            29 169 rlineto
            return
          </CharString>
          <CharString index="114">
            246 callsubr
            1 hlineto
            64 20 -32 -36 -5 hvcurveto
            -5 -31 -69 callgsubr
            return
          </CharString>
          <CharString index="115">
            146 callgsubr
            -66 -12 -24 248 callsubr
            return
          </CharString>
          <CharString index="116">
            71 callgsubr
            -9 -71 31 -51 53 -32 -137 -149 283 callsubr
            47 -98 rlineto
            194 hlineto
            -81 143 57 29 34 50 12 66 rlinecurve
            -55 callgsubr
            190 296 callsubr
            -1 hlineto
            9 45 rlineto
            endchar
          </CharString>
          <CharString index="117">
            85 hlineto
            16 9 -5 -10 -2 hvcurveto
            -10 -2 -11 166 callsubr
            173 222 callsubr
            95 17 return
          </CharString>
          <CharString index="118">
            -35 rmoveto
            -26 -147 300 callgsubr
            -11 rlineto
            -52 -9 -25 -23 -34 hhcurveto
            -14 -78 rlineto
            113 277 callsubr
            return
          </CharString>
          <CharString index="119">
            -46 callgsubr
            34 44 8 hvcurveto
            return
          </CharString>
          <CharString index="120">
            397 rmoveto
            45 37 -19 -44 -8 hvcurveto
            -170 hlineto
            49 19 38 14 39 hhcurveto
            264 -194 rmoveto
            -235 hlineto
            -22 -14 -23 -14 -39 hhcurveto
            -41 -28 17 59 3 hvcurveto
            391 hlineto
            6 14 4 16 3 14 rrcurveto
            177 31 -80 107 -139 hhcurveto
            -81 -64 -31 -53 -36 hvcurveto
            14 77 rlineto
            -221 hlineto
            -14 -77 rlineto
            51 -18 -48 33 -75 hhcurveto
            -130 -122 -107 -182 -32 hvcurveto
            -182 -32 84 -107 130 269 callgsubr
            14 77 rlineto
            -52 19 51 -32 81 hhcurveto
            117 101 90 120 45 hvcurveto
            -763 79 rmoveto
            62 11 42 33 46 hhcurveto
            46 30 -33 -62 131 callsubr
            -42 -33 -46 hhcurveto
            -46 -30 33 62 11 hvcurveto
            return
          </CharString>
          <CharString index="121">
            hvcurveto
            16 callgsubr
            return
          </CharString>
          <CharString index="122">
            19 callgsubr
            291 146 callsubr
            return
          </CharString>
          <CharString index="123">
            rmoveto
            -198 hlineto
            -41 -8 -13 -24 -33 hhcurveto
            -38 -3 28 26 5 hvcurveto
            8 45 rlineto
            7 hlineto
            158 144 74 176 31 hvcurveto
            150 27 -101 82 -135 hhcurveto
            return
          </CharString>
          <CharString index="124">
            8 callsubr
            -8 hlineto
            return
          </CharString>
          <CharString index="125">
            44 callgsubr
            endchar
          </CharString>
          <CharString index="126">
            -94 callsubr
            446 537 rmoveto
            return
          </CharString>
          <CharString index="127">
            33 callsubr
            -630 -24 -46 callsubr
            67 hlineto
            -148 -11 96 -94 161 -5 callsubr
            -125 238 callsubr
            return
          </CharString>
          <CharString index="128">
            53 540 rmoveto
            -121 -22 68 -59 103 hhcurveto
            102 87 59 121 22 hvcurveto
            122 21 -67 59 -102 hhcurveto
            -103 -88 -59 -122 -21 hvcurveto
            188 52 rmoveto
            23 11 -17 -35 -6 hvcurveto
            -34 -6 -17 -17 -23 hhcurveto
            -22 -9 17 34 6 hvcurveto
            35 6 15 17 22 hhcurveto
            -148 -592 rmoveto
            212 hlineto
            499 711 rlineto
            -212 hlineto
            -108 -540 rmoveto
            -122 -21 68 -59 102 hhcurveto
            103 86 59 122 21 hvcurveto
            122 22 -66 59 -103 hhcurveto
            -102 -88 -59 -122 -22 hvcurveto
            189 52 rmoveto
            22 10 -18 -34 -6 hvcurveto
            -35 -6 -17 -17 -22 hhcurveto
            -23 -9 17 35 264 callsubr
            16 18 23 hhcurveto
            return
          </CharString>
          <CharString index="129">
            -43 callgsubr
            338 271 rmoveto
            -101 callsubr
            -905 -68 callsubr
            104 79 47 61 50 hvcurveto
            105 callsubr
          </CharString>
          <CharString index="130">
            28 rmoveto
            -195 -298 rlineto
            243 hlineto
            509 834 rlineto
            -245 hlineto
            -150 -286 -55 286 rlineto
            -247 hlineto
            return
          </CharString>
          <CharString index="131">
            462 rmoveto
            -42 -7 -26 -18 -42 hhcurveto
            -88 hlineto
            22 120 rlineto
            88 hlineto
            42 17 -24 -36 -6 hvcurveto
            -331 246 rmoveto
            276 callgsubr
            44 254 rlineto
            0 vlineto
            90 -254 rlineto
            244 hlineto
            -107 271 107 33 66 79 17 93 rlinecurve
            130 22 -73 102 -178 hhcurveto
            return
          </CharString>
          <CharString index="132">
            -190 -193 257 callsubr
            191 217 -32 -182 14 callgsubr
          </CharString>
          <CharString index="133">
            -106 callgsubr
            653 -11 rmoveto
            -49 -24 34 42 7 hvcurveto
            42 7 36 34 49 hhcurveto
            return
          </CharString>
          <CharString index="134">
            hhcurveto
            -115 -101 -57 -125 -22 hvcurveto
            -7 -39 1 -32 2 -19 rrcurveto
            166 hlineto
            -2 21 0 24 4 22 rrcurveto
            32 6 15 24 25 hhcurveto
            25 4 -29 -29 -5 hvcurveto
            -93 -17 -71 -43 -140 hhcurveto
            return
          </CharString>
          <CharString index="135">
            31 callsubr
            -45 13 -39 34 -27 -58 -38 -42 -60 -15 -82 rrcurveto
            -157 -30 104 -105 151 hhcurveto
            140 99 70 123 27 hvcurveto
            -178 hlineto
            -19 -11 -24 -16 -29 hhcurveto
            -38 -33 28 59 11 hvcurveto
            62 12 36 35 46 hhcurveto
            29 15 -12 -10 8 hvcurveto
            -77 -79 rlineto
            179 hlineto
            75 80 rlineto
            103 7 -89 70 -127 hhcurveto
            -10 -9 0 -1 -9 hvcurveto
            -5 5 -1 7 2 6 rrcurveto
            20 5 14 8 19 hhcurveto
            167 hlineto
            endchar
          </CharString>
          <CharString index="136">
            13 515 27 callgsubr
            -917 hlineto
            -30 -169 rlineto
            395 96 callsubr
            return
          </CharString>
          <CharString index="137">
            -102 callsubr
            endchar
          </CharString>
          <CharString index="138">
            rmoveto
            7 40 rlineto
            120 -87 callsubr
            -606 hlineto
            -30 164 callgsubr
            -48 hlineto
            -105 -66 -56 -73 -13 hvcurveto
            -8 return
          </CharString>
          <CharString index="139">
            146 26 -94 90 -127 hhcurveto
            -65 -75 -17 -83 -66 hvcurveto
            35 callsubr
            -201 135 -20 callgsubr
            435 308 rmoveto
            -101 callsubr
            -960 170 callgsubr
          </CharString>
          <CharString index="140">
            rmoveto
            -76 -32 42 46 5 hvcurveto
            113 18 44 77 15 87 279 callgsubr
            -80 -14 -54 -63 -90 hhcurveto
            return
          </CharString>
          <CharString index="141">
            hhcurveto
            34 31 6 11 28 hvcurveto
            -89 23 77 -59 126 47 callsubr
            return
          </CharString>
          <CharString index="142">
            -4 hlineto
            83 -41 -72 17 -65 hhcurveto
            -127 -118 -90 -146 -26 hvcurveto
            -149 -26 94 -88 126 hhcurveto
            78 77 31 70 51 hvcurveto
            return
          </CharString>
          <CharString index="143">
            24 134 -73 84 -102 32 10 53 rcurveline
            246 -87 callsubr
            return
          </CharString>
          <CharString index="144">
            hlineto
            -12 -67 -56 -14 -42 -31 -29 -41 rlinecurve
            return
          </CharString>
          <CharString index="145">
            rmoveto
            -70 -33 36 42 1 hvcurveto
            100 27 57 80 15 85 13 69 rcurveline
            110 205 callgsubr
            -53 -63 -91 hhcurveto
            473 339 rmoveto
            -101 callsubr
            return
          </CharString>
          <CharString index="146">
            17 callsubr
            -7 return
          </CharString>
          <CharString index="147">
            249 callgsubr
            1 -10 rrcurveto
            3 callsubr
            -1 10 1 9 2 9 rrcurveto
            22 4 14 17 20 76 callgsubr
            return
          </CharString>
          <CharString index="148">
            10 -62 callsubr
            653 1 callgsubr
            -955 134 callgsubr
            207 hlineto
            132 23 -50 103 -130 hhcurveto
            -59 -50 -19 -33 -36 hvcurveto
            206 callsubr
            return
          </CharString>
          <CharString index="149">
            -146 300 callgsubr
            -12 rlineto
            -51 -9 -25 -23 -34 hhcurveto
            -14 -79 rlineto
            113 65 80 97 17 hvcurveto
            return
          </CharString>
          <CharString index="150">
            42 52 9 hvcurveto
            30 170 rlineto
            return
          </CharString>
          <CharString index="151">
            -83 65 502 rmoveto
            216 hlineto
            29 5 11 33 32 hhcurveto
            19 16 -13 -36 -6 hvcurveto
            -10 -56 -50 1 -18 1 rrcurveto
            -36 hlineto
            -32 -179 rlineto
            37 hlineto
            61 17 -25 -41 -8 hvcurveto
            -25 -4 -22 -15 -23 hhcurveto
            -42 -11 26 47 12 hvcurveto
            -216 hlineto
            -174 -20 93 -82 172 hhcurveto
            157 97 76 112 20 hvcurveto
            19 107 -44 62 -65 26 1 4 rcurveline
            45 14 73 41 18 98 rrcurveto
            119 21 -72 95 -162 hhcurveto
            -163 -106 -86 -159 -32 hvcurveto
            endchar
          </CharString>
          <CharString index="152">
            252 rmoveto
            -32 -21 13 26 5 hvcurveto
            24 4 20 16 36 callgsubr
            154 hlineto
            -38 -218 rlineto
            -63 -11 -53 -38 -59 hhcurveto
            441 319 rmoveto
            -101 callsubr
            return
          </CharString>
          <CharString index="153">
            hhcurveto
            58 53 15 31 37 hvcurveto
            -15 -85 rlineto
            -27 395 4 callsubr
            return
          </CharString>
          <CharString index="154">
            -106 callsubr
            -32 callgsubr
            return
          </CharString>
          <CharString index="155">
            708 rmoveto
            -530 hlineto
            -31 -176 rlineto
            280 hlineto
            -344 -365 -29 -167 rlineto
            530 170 callsubr
            -284 hlineto
            348 364 rlineto
            return
          </CharString>
          <CharString index="156">
            -28 -156 rlineto
            -44 -8 -19 -23 -31 hhcurveto
            return
          </CharString>
          <CharString index="157">
            rrcurveto
            -137 -25 62 callgsubr
          </CharString>
          <CharString index="158">
            185 callsubr
            rrcurveto
            -145 -30 136 -90 202 149 callsubr
            return
          </CharString>
          <CharString index="159">
            -67 131 hhcurveto
            71 88 callgsubr
          </CharString>
          <CharString index="160">
            rrcurveto
            57 callgsubr
          </CharString>
          <CharString index="161">
            -99 21 228 rmoveto
            -108 -5 58 -127 178 hhcurveto
            207 69 134 230 40 hvcurveto
            223 40 -29 164 -236 hhcurveto
            -154 -113 -91 -145 -25 hvcurveto
            -159 -28 75 -81 124 hhcurveto
            58 51 24 36 30 hvcurveto
            -97 -17 -17 -61 -54 hhcurveto
            -33 -12 20 38 hvcurveto
            79 210 rmoveto
            -35 -21 20 37 7 hvcurveto
            41 7 26 18 36 hhcurveto
            36 20 -18 -41 -7 hvcurveto
            -37 -7 -27 -20 -35 hhcurveto
            endchar
          </CharString>
          <CharString index="162">
            -156 -30 73 -103 137 -74 callgsubr
            return
          </CharString>
          <CharString index="163">
            rmoveto
            156 hlineto
            20 3 6 8 10 hhcurveto
            9 1 -7 -10 -1 hvcurveto
            -19 -4 -8 -7 -19 hhcurveto
            -21 hlineto
            -9 -54 rlineto
            30 hlineto
            18 8 -6 -19 -4 hvcurveto
            -17 -3 -7 -4 -7 hhcurveto
            -9 -4 4 16 3 hvcurveto
            -172 hlineto
            -79 -7 35 -54 149 hhcurveto
            105 73 35 68 12 hvcurveto
            7 41 -17 26 -60 14 1 4 rcurveline
            51 8 29 24 8 42 rrcurveto
            63 11 -53 43 -107 hhcurveto
            -145 -56 -72 -68 -12 hvcurveto
            endchar
          </CharString>
          <CharString index="164">
            rmoveto
            431 hlineto
            26 147 rlineto
            -431 hlineto
            endchar
          </CharString>
          <CharString index="165">
            206 143 callsubr
            19 -24 -32 -6 hvcurveto
            -33 return
          </CharString>
          <CharString index="166">
            rmoveto
            -64 -22 42 62 11 hvcurveto
            8 46 return
          </CharString>
          <CharString index="167">
            -137 575 -62 callgsubr
            -550 163 callgsubr
            -11 -29 127 callgsubr
            85 85 130 22 hvcurveto
            1 5 1 9 1 12 rrcurveto
            -195 hlineto
            -5 -33 rlineto
            -19 -4 -11 -16 -18 hhcurveto
            -20 -4 16 19 4 hvcurveto
            13 77 182 10 65 120 25 139 rlinecurve
            4 26 rlineto
            return
          </CharString>
          <CharString index="168">
            142 callgsubr
            endchar
          </CharString>
          <CharString index="169">
            hlineto
            -17 -100 -92 callgsubr
            94 297 callsubr
            205 hlineto
            101 571 rlineto
            return
          </CharString>
          <CharString index="170">
            rlineto
            94 -12 callsubr
            return
          </CharString>
          <CharString index="171">
            hvcurveto
            31 26 0 1 23 hvcurveto
            -130 7 89 -80 141 hhcurveto
            74 60 21 35 46 hvcurveto
            -21 -119 -2 callgsubr
            return
          </CharString>
          <CharString index="172">
            238 callsubr
            -779 147 callgsubr
            -5 -15 -5 -17 -3 -18 135 callgsubr
          </CharString>
          <CharString index="173">
            rmoveto
            -149 -244 rlineto
            133 hlineto
            184 244 rlineto
            -413 hmoveto
            -124 -244 rlineto
            133 hlineto
            159 244 rlineto
            endchar
          </CharString>
          <CharString index="174">
            703 1239 hmoveto
            -49 callgsubr
            -1390 -107 callgsubr
            605 hlineto
            -8 -48 -8 -45 -17 -33 -34 -19 rlinecurve
            42 -40 -67 24 -98 hhcurveto
            -156 -152 -81 -168 -30 hvcurveto
            -176 -31 113 -66 136 hhcurveto
            49 2 callgsubr
            40 30 65 hhcurveto
            82 5 -48 -35 hvcurveto
            0 vlineto
            return
          </CharString>
          <CharString index="175">
            rmoveto
            -29 -19 16 28 5 hvcurveto
            31 6 29 17 34 hhcurveto
            45 hlineto
            -6 -32 rlineto
            -33 -6 -19 -27 -40 hhcurveto
            return
          </CharString>
          <CharString index="176">
            91 callsubr
            18 -24 254 callsubr
            return
          </CharString>
          <CharString index="177">
            -175 -28 136 -72 129 -22 callgsubr
          </CharString>
          <CharString index="178">
            -78 366 -20 rmoveto
            235 200 36 207 -505 -407 rlineto
            538 591 rmoveto
            -101 callsubr
            -645 -32 callsubr
            return
          </CharString>
          <CharString index="179">
            -66 128 731 rmoveto
            -79 -448 rlineto
            216 hlineto
            16 3 16 17 30 hhcurveto
            32 17 -19 -40 -7 hvcurveto
            -39 -7 -19 -28 -35 hhcurveto
            -38 -4 28 16 3 hvcurveto
            -216 hlineto
            -136 -27 83 -98 177 hhcurveto
            156 113 92 161 28 hvcurveto
            125 22 -46 111 -142 hhcurveto
            -51 -44 -14 -23 -30 hvcurveto
            15 84 rlineto
            290 hlineto
            34 195 rlineto
            endchar
          </CharString>
          <CharString index="180">
            109 callsubr
            endchar
          </CharString>
          <CharString index="181">
            206 918 -62 callgsubr
            -894 -107 callgsubr
            614 hlineto
            -16 -90 rlineto
            -266 66 callgsubr
            -54 -308 157 callsubr
            100 571 rlineto
            return
          </CharString>
          <CharString index="182">
            50 -58 57 -21 -1 -4 rcurveline
            -50 -13 -69 -36 -15 -86 return
          </CharString>
          <CharString index="183">
            708 rmoveto
            -295 hlineto
            -46 -264 rlineto
            -50 hlineto
            -31 -176 rlineto
            50 hlineto
            -47 -268 197 callgsubr
            12 70 rlineto
            131 hlineto
            31 176 rlineto
            -130 hlineto
            12 70 251 callgsubr
          </CharString>
          <CharString index="184">
            14 -47 -34 -4 hvcurveto
            -2 -10 -69 callgsubr
            return
          </CharString>
          <CharString index="185">
            hhcurveto
            144 99 81 140 12 hvcurveto
            return
          </CharString>
          <CharString index="186">
            218 hlineto
            175 210 -101 callgsubr
            return
          </CharString>
          <CharString index="187">
            -1 -41 -1 -28 17 108 callgsubr
            -122 -22 return
          </CharString>
          <CharString index="188">
            -20 -114 48 -93 97 -31 -129 -128 rcurveline
            212 hlineto
            138 153 rlineto
            -42 310 rmoveto
            63 37 -45 -62 -10 hvcurveto
            -1 -8 -2 -8 -3 201 callsubr
            7 148 -114 rcurveline
            -9 -19 -21 -6 -23 hhcurveto
            endchar
          </CharString>
          <CharString index="189">
            rmoveto
            51 -18 -52 156 callgsubr
            59 241 callsubr
            222 hlineto
            131 740 115 callsubr
            -80 -458 rmoveto
            -62 -11 -42 -33 -46 hhcurveto
            -46 -30 33 62 11 hvcurveto
            62 11 42 33 46 hhcurveto
            46 30 -33 -62 -11 hvcurveto
            endchar
          </CharString>
          <CharString index="190">
            vvcurveto
            55 callsubr
            return
          </CharString>
          <CharString index="191">
            245 callgsubr
            -15 hlineto
            -157 -124 -77 -152 -27 hvcurveto
            return
          </CharString>
          <CharString index="192">
            hhcurveto
            44 33 11 20 26 hvcurveto
            -22 -126 rlineto
            return
          </CharString>
          <CharString index="193">
            5 33 -2 28 -5 24 rrcurveto
            return
          </CharString>
          <CharString index="194">
            -4 395 721 rmoveto
            211 62 -152 -206 -36 hvcurveto
            -207 -36 -116 -152 -211 hhcurveto
            -212 -61 152 207 36 hvcurveto
            206 36 115 152 212 hhcurveto
            -37 -210 rmoveto
            -73 -21 -70 -78 -14 hvcurveto
            -79 -14 -3 -70 73 hhcurveto
            72 21 70 79 14 hvcurveto
            78 14 3 70 -72 hhcurveto
            endchar
          </CharString>
          <CharString index="195">
            231 93 callsubr
            return
          </CharString>
          <CharString index="196">
            -35 callgsubr
            77 -87 callsubr
            return
          </CharString>
          <CharString index="197">
            -176 -32 124 -80 135 hhcurveto
            39 2 callgsubr
            40 30 65 hhcurveto
            79 77 callsubr
            return
          </CharString>
          <CharString index="198">
            24 34 hhcurveto
            33 return
          </CharString>
          <CharString index="199">
            rmoveto
            -25 -146 300 callgsubr
            -12 rlineto
            -51 -9 299 callgsubr
            -14 -79 rlineto
            114 295 callsubr
            0 46 -10 46 rrcurveto
            -380 hmoveto
            -25 42 callsubr
            7 42 1 46 -10 46 rrcurveto
            endchar
          </CharString>
          <CharString index="200">
            rmoveto
            77 13 46 23 80 hhcurveto
            63 hlineto
            42 237 rlineto
            -73 -76 -45 -63 -55 hvcurveto
            18 104 115 callsubr
            -99 -564 115 callgsubr
            41 231 rlineto
            return
          </CharString>
          <CharString index="201">
            386 -170 rmoveto
            -97 callgsubr
            206 470 rmoveto
            34 6 return
          </CharString>
          <CharString index="202">
            rmoveto
            57 10 -37 45 -57 hhcurveto
            -56 -53 -45 -57 -10 hvcurveto
            -55 -10 37 -45 56 hhcurveto
            57 53 45 55 10 hvcurveto
            return
          </CharString>
          <CharString index="203">
            -95 callsubr
            -25 -61 callsubr
            -28 214 -106 callgsubr
            return
          </CharString>
          <CharString index="204">
            1040 rmoveto
            -163 hlineto
            -52 -9 -44 -38 -62 hhcurveto
            -63 -31 38 52 9 hvcurveto
            -161 hlineto
            -153 -27 80 -80 168 hhcurveto
            168 108 80 153 27 hvcurveto
            -186 22 rmoveto
            40 7 -25 33 -43 hhcurveto
            -39 -39 -33 -40 -7 hvcurveto
            -41 -7 27 -32 39 hhcurveto
            43 37 32 41 7 hvcurveto
            endchar
          </CharString>
          <CharString index="205">
            113 callgsubr
            41 12 -34 -28 -5 hvcurveto
            return
          </CharString>
          <CharString index="206">
            84 callsubr
            -160 -28 92 -77 103 hhcurveto
            46 39 12 23 30 hvcurveto
            -90 callsubr
            return
          </CharString>
          <CharString index="207">
            183 hlineto
            100 571 rlineto
            78 -87 callsubr
            -272 hlineto
            -46 -261 rlineto
            -132 271 callsubr
            return
          </CharString>
          <CharString index="208">
            251 208 -46 callsubr
            return
          </CharString>
          <CharString index="209">
            -138 -19 87 -112 169 hhcurveto
            98 75 32 50 52 hvcurveto
            40 -36 56 -20 68 -1 75 -1 62 21 46 37 -21 -120 rcurveline
            -88 callgsubr
            -834 -395 rmoveto
            -59 -44 41 65 11 195 callsubr
            7 147 -113 rcurveline
            -10 -18 -21 -6 -23 hhcurveto
            return
          </CharString>
          <CharString index="210">
            -13 -74 18 -53 34 -33 -58 -37 -39 -59 -12 -68 rrcurveto
            -109 -19 52 -97 129 hhcurveto
            52 49 16 33 37 hvcurveto
            -18 -105 rlineto
            187 hlineto
            99 565 rlineto
            -176 hlineto
            -36 -6 -27 -30 -41 hhcurveto
            -39 -19 28 39 7 hvcurveto
            43 8 33 27 55 hhcurveto
            202 hlineto
            41 230 rlineto
            return
          </CharString>
          <CharString index="211">
            rmoveto
            163 hlineto
            23 5 8 11 11 hhcurveto
            6 2 -3 -5 hvcurveto
            -3 -16 -17 -18 -36 -17 -148 -70 rcurveline
            -21 -122 rlineto
            345 hlineto
            22 125 rlineto
            -170 hlineto
            43 15 105 37 47 32 8 48 rlinecurve
            49 9 -31 59 -119 hhcurveto
            -122 -85 -62 -86 -22 hvcurveto
            endchar
          </CharString>
          <CharString index="212">
            -5 20 22 -2 22 hhcurveto
            128 118 73 135 23 hvcurveto
            130 23 -85 76 -134 hhcurveto
            -135 -115 0 callgsubr
            -59 callgsubr
            endchar
          </CharString>
          <CharString index="213">
            hlineto
            -9 -53 -171 -8 -113 -92 -25 -148 rlinecurve
            return
          </CharString>
          <CharString index="214">
            hlineto
            85 -25 -81 46 -101 hhcurveto
            -130 -110 -73 -137 -29 hvcurveto
            192 hlineto
            30 14 27 7 17 hhcurveto
            36 15 -29 -36 -6 hvcurveto
            -38 -6 -26 -29 -36 hhcurveto
            -17 -25 7 31 -4 hvcurveto
            -192 hlineto
            -137 -19 105 -72 130 hhcurveto
            117 96 61 113 43 hvcurveto
            return
          </CharString>
          <CharString index="215">
            89 -139 hhcurveto
            -146 -104 -75 -124 -21 hvcurveto
            -14 -82 32 -64 62 -53 -225 -154 rcurveline
            -4 -24 rlineto
            231 hlineto
            133 94 return
          </CharString>
          <CharString index="216">
            hhcurveto
            148 103 80 callgsubr
            return
          </CharString>
          <CharString index="217">
            28 159 rlineto
            return
          </CharString>
          <CharString index="218">
            rmoveto
            124 callgsubr
            return
          </CharString>
          <CharString index="219">
            301 callgsubr
            34 -26 -44 18 -55 hhcurveto
            return
          </CharString>
          <CharString index="220">
            94 callsubr
            26 21 35 hhcurveto
            35 17 -21 -34 -6 hvcurveto
            -35 -6 -24 -21 -35 hhcurveto
            -35 -19 21 35 6 hvcurveto
            return
          </CharString>
          <CharString index="221">
            rmoveto
            -94 154 callsubr
            95 hlineto
            return
          </CharString>
          <CharString index="222">
            rlineto
            -222 hlineto
            return
          </CharString>
          <CharString index="223">
            19 callgsubr
            248 184 callsubr
            -61 -10 -29 -46 -104 hhcurveto
            -63 hlineto
            -36 -203 rlineto
            -121 -22 69 -98 148 hhcurveto
            135 88 90 131 11 hvcurveto
            -173 hlineto
            -25 -5 -9 -23 -27 hhcurveto
            -22 -5 18 18 3 hvcurveto
            14 79 rlineto
            return
          </CharString>
          <CharString index="224">
            hlineto
            -6 -21 -4 -21 -1 -23 rrcurveto
            183 hlineto
            35 -3 12 35 32 hhcurveto
            17 10 -16 -20 -3 hvcurveto
            -69 -10 -70 -23 -108 hhcurveto
            return
          </CharString>
          <CharString index="225">
            -14 -82 rlineto
            24 -35 -46 11 -53 hhcurveto
            return
          </CharString>
          <CharString index="226">
            rmoveto
            -34 -192 rlineto
            87 hlineto
            -2 -11 rlineto
            -52 -9 -22 -8 -34 hhcurveto
            -14 -78 rlineto
            209 39 228 113 -49 hvcurveto
            endchar
          </CharString>
          <CharString index="227">
            207 callgsubr
            -286 hlineto
            return
          </CharString>
          <CharString index="228">
            -152 -21 90 -73 100 136 callsubr
          </CharString>
          <CharString index="229">
            167 callgsubr
            82 16 -18 -91 44 hvcurveto
            -86 -3 callgsubr
            return
          </CharString>
          <CharString index="230">
            hhcurveto
            68 61 21 41 46 hvcurveto
            -24 -134 3 callgsubr
          </CharString>
          <CharString index="231">
            220 hlineto
            38 212 183 callsubr
            return
          </CharString>
          <CharString index="232">
            8 302 hmoveto
            224 hlineto
            206 callsubr
            72 hlineto
            34 192 rlineto
            -72 hlineto
            73 418 rlineto
            -239 hlineto
            -372 -425 -33 -185 rlineto
            313 hlineto
            -56 192 rmoveto
            137 165 298 callsubr
            endchar
          </CharString>
          <CharString index="233">
            -329 rmoveto
            -97 callgsubr
            return
          </CharString>
          <CharString index="234">
            251 rmoveto
            -32 callgsubr
            return
          </CharString>
          <CharString index="235">
            -107 callgsubr
            243 hlineto
            -9 -48 -111 -26 -98 -75 -23 -138 rlinecurve
            return
          </CharString>
          <CharString index="236">
            hlineto
            -6 -31 -8 -46 -15 -43 -46 -22 rlinecurve
            37 -40 -59 23 -80 return
          </CharString>
          <CharString index="237">
            -79 -14 -85 -14 -77 hhcurveto
            return
          </CharString>
          <CharString index="238">
            -11 hvcurveto
            -62 -11 return
          </CharString>
          <CharString index="239">
            138 callgsubr
            endchar
          </CharString>
          <CharString index="240">
            28 41 hhcurveto
            49 return
          </CharString>
          <CharString index="241">
            62 callsubr
            endchar
          </CharString>
          <CharString index="242">
            hhcurveto
            104 81 43 50 41 hvcurveto
            298 callsubr
            endchar
          </CharString>
          <CharString index="243">
            hhcurveto
            46 39 12 23 30 hvcurveto
            -90 callsubr
            endchar
          </CharString>
          <CharString index="244">
            rmoveto
            186 hlineto
            -93 -532 115 callgsubr
            93 532 rlineto
            188 hlineto
            31 176 rlineto
            -596 hlineto
            return
          </CharString>
          <CharString index="245">
            261 callsubr
            -14 -75 29 -39 44 -16 rlinecurve
            -1 -4 -49 -17 -52 -42 -13 -73 rlinecurve
            return
          </CharString>
          <CharString index="246">
            rmoveto
            44 7 39 35 51 hhcurveto
            48 28 -32 -46 -8 hvcurveto
            -46 -8 -39 -33 -48 hhcurveto
            -51 -26 34 44 7 hvcurveto
            return
          </CharString>
          <CharString index="247">
            rlineto
            204 hlineto
            215 callsubr
            return
          </CharString>
          <CharString index="248">
            -35 677 -62 callgsubr
            -653 -107 callgsubr
            359 245 callgsubr
            -16 hlineto
            -157 -123 -80 -139 -24 hvcurveto
            -12 -72 16 -51 32 -33 -69 -38 -46 -65 -13 -75 return
          </CharString>
          <CharString index="249">
            hvcurveto
            -170 -28 136 -70 129 hhcurveto
            29 hlineto
            -46 callgsubr
            31 40 8 hvcurveto
            return
          </CharString>
          <CharString index="250">
            253 callsubr
            28 91 callsubr
            return
          </CharString>
          <CharString index="251">
            -27 -20 15 33 6 hvcurveto
            33 6 29 16 return
          </CharString>
          <CharString index="252">
            hlineto
            -30 -171 rlineto
            110 hlineto
            -15 -23 -12 -29 -6 -35 rrcurveto
            -140 -26 110 -89 140 hhcurveto
            43 171 callgsubr
            8 41 30 53 hhcurveto
            return
          </CharString>
          <CharString index="253">
            137 callgsubr
            -105 -89 -53 -104 -18 hvcurveto
            -142 -25 132 -30 71 -60 callsubr
            return
          </CharString>
          <CharString index="254">
            222 hlineto
            67 379 rlineto
            83 hlineto
            32 185 rlineto
            -81 hlineto
            13 36 26 10 49 -6 34 189 rcurveline
            -188 17 -127 -86 -31 -160 rrcurveto
            -60 hlineto
            -32 -185 rlineto
            59 hlineto
            return
          </CharString>
          <CharString index="255">
            199 callgsubr
            -24 120 -64 155 hhcurveto
            return
          </CharString>
          <CharString index="256">
            hhcurveto
            251 154 120 179 32 hvcurveto
            return
          </CharString>
          <CharString index="257">
            65 133 23 hvcurveto
            return
          </CharString>
          <CharString index="258">
            -54 callgsubr
            86 hlineto
            -3 return
          </CharString>
          <CharString index="259">
            rmoveto
            82 98 47 -98 rlineto
            194 hlineto
            -102 179 rlineto
            -271 hlineto
            -165 -179 rlineto
            endchar
          </CharString>
          <CharString index="260">
            24 -58 112 -130 hhcurveto
            -51 -44 -18 -31 -32 hvcurveto
            19 107 rlineto
            return
          </CharString>
          <CharString index="261">
            hlineto
            17 100 rlineto
            return
          </CharString>
          <CharString index="262">
            655 333 291 rmoveto
            -64 -22 42 62 11 hvcurveto
            8 47 150 -101 rlineto
            -29 -17 -26 -21 -40 hhcurveto
            461 280 rmoveto
            -19 -109 rlineto
            32 -23 -41 19 -59 hhcurveto
            -71 return
          </CharString>
          <CharString index="263">
            rrcurveto
            -137 -25 75 -103 119 140 callgsubr
            return
          </CharString>
          <CharString index="264">
            rlineto
            3 callsubr
            return
          </CharString>
          <CharString index="265">
            hlineto
            -36 -202 -16 -80 -41 -47 -65 -2 rlinecurve
            -42 -1 -28 18 6 36 rrcurveto
            109 callgsubr
            return
          </CharString>
          <CharString index="266">
            hlineto
            -39 -217 rlineto
            -140 -25 90 -94 152 hhcurveto
            158 84 103 131 22 hvcurveto
            39 217 rlineto
            95 230 callgsubr
            endchar
          </CharString>
          <CharString index="267">
            169 callsubr
            endchar
          </CharString>
          <CharString index="268">
            hhcurveto
            -92 -65 -37 -57 -40 hvcurveto
            -42 callsubr
            -116 -130 -63 -176 -30 hvcurveto
            -151 -28 80 -117 177 -33 callsubr
            return
          </CharString>
          <CharString index="269">
            rlineto
            53 hlineto
            98 56 -55 -103 -19 hvcurveto
            -103 -18 -75 -55 -98 hhcurveto
            return
          </CharString>
          <CharString index="270">
            17 97 -31 71 -68 32 10 56 rcurveline
            return
          </CharString>
          <CharString index="271">
            -46 -42 -9 hvcurveto
            136 hlineto
            131 36 -63 84 -126 hhcurveto
            -108 -64 -61 -67 -30 hvcurveto
            -56 94 -61 16 -119 167 callgsubr
            return
          </CharString>
          <CharString index="272">
            222 hlineto
            41 233 98 -233 rlineto
            254 hlineto
            -157 288 262 276 rlineto
            -258 hlineto
            -177 -204 67 380 115 callsubr
            endchar
          </CharString>
          <CharString index="273">
            -6 -16 hhcurveto
            -150 262 callsubr
            return
          </CharString>
          <CharString index="274">
            205 565 rmoveto
            26 147 rlineto
            -72 hlineto
            1 11 rlineto
            52 10 24 23 35 hhcurveto
            13 78 rlineto
            -114 -65 -80 -96 -17 hvcurveto
            -7 -42 0 -46 10 -47 rrcurveto
            return
          </CharString>
          <CharString index="275">
            rmoveto
            110 175 rlineto
            -201 hlineto
            -108 -175 46 -175 rlineto
            201 hlineto
            return
          </CharString>
          <CharString index="276">
            149 callsubr
            163 callsubr
            return
          </CharString>
          <CharString index="277">
            hlineto
            31 177 rlineto
            return
          </CharString>
          <CharString index="278">
            373 176 callsubr
            return
          </CharString>
          <CharString index="279">
            -107 callgsubr
            80 hlineto
            -53 -305 rlineto
            -145 -25 83 -102 173 hhcurveto
            return
          </CharString>
          <CharString index="280">
            hlineto
            -15 -83 rlineto
            -120 hlineto
            return
          </CharString>
          <CharString index="281">
            hlineto
            42 235 rlineto
            return
          </CharString>
          <CharString index="282">
            232 -102 callsubr
            return
          </CharString>
          <CharString index="283">
            189 rmoveto
            -114 -26 30 40 7 hvcurveto
            28 5 24 23 38 hhcurveto
            15 hlineto
            29 162 rlineto
            -19 hlineto
            -36 -7 25 33 6 hvcurveto
            7 41 rlineto
            return
          </CharString>
          <CharString index="284">
            208 callgsubr
            78 46 60 50 hvcurveto
            -3 18 return
          </CharString>
          <CharString index="285">
            89 123 41 hvcurveto
            1 3 1 7 1 8 rrcurveto
            -195 hlineto
            -5 -25 rlineto
            -17 -3 -11 -15 -18 hhcurveto
            -20 -3 16 19 3 hvcurveto
            13 77 rlineto
            return
          </CharString>
          <CharString index="286">
            hlineto
            -100 -571 rlineto
            204 hlineto
            -49 callgsubr
            return
          </CharString>
          <CharString index="287">
            hhcurveto
            -168 -96 -94 -133 -23 hvcurveto
            -138 -24 94 -111 158 hhcurveto
            return
          </CharString>
          <CharString index="288">
            468 232 callsubr
            return
          </CharString>
          <CharString index="289">
            -12 callgsubr
            endchar
          </CharString>
          <CharString index="290">
            rlineto
            -220 hlineto
            return
          </CharString>
          <CharString index="291">
            hlineto
            -9 -51 rlineto
            return
          </CharString>
          <CharString index="292">
            rmoveto
            -101 callsubr
            -850 28 callgsubr
            return
          </CharString>
          <CharString index="293">
            -107 callgsubr
            86 hlineto
            -22 -128 rlineto
            -128 -25 80 -106 158 hhcurveto
            162 83 101 133 23 hvcurveto
            22 128 rlineto
            return
          </CharString>
          <CharString index="294">
            -138 -25 97 -101 138 hhcurveto
            108 112 212 callgsubr
            return
          </CharString>
          <CharString index="295">
            rmoveto
            164 hlineto
            62 352 rlineto
            -230 hlineto
            -22 -127 rlineto
            66 hlineto
            return
          </CharString>
          <CharString index="296">
            95 146 26 hvcurveto
            return
          </CharString>
          <CharString index="297">
            22 9 -20 -23 -4 return
          </CharString>
          <CharString index="298">
            150 88 65 113 20 hvcurveto
            -55 callgsubr
            return
          </CharString>
          <CharString index="299">
            124 callgsubr
            -727 -107 callgsubr
            135 8 callsubr
            return
          </CharString>
          <CharString index="300">
            hlineto
            -135 -129 -57 -155 -26 hvcurveto
            -145 return
          </CharString>
          <CharString index="301">
            268 callgsubr
            -44 hlineto
            return
          </CharString>
          <CharString index="302">
            hvcurveto
            1 8 3 8 3 return
          </CharString>
          <CharString index="303">
            rmoveto
            -46 -1 -22 31 7 37 7 37 28 29 45 5 32 4 29 11 22 18 -17 -100 rcurveline
            -7 -41 -34 -29 -44 -1 rrcurveto
            return
          </CharString>
          <CharString index="304">
            -51 18 47 -33 75 hhcurveto
            130 122 107 182 32 hvcurveto
            182 32 -84 107 -130 hhcurveto
            -75 -59 -33 -51 -36 hvcurveto
            return
          </CharString>
          <CharString index="305">
            36 -140 hhcurveto
            -38 -16 4 17 3 hvcurveto
            15 3 13 5 21 hhcurveto
            191 hlineto
            17 95 rlineto
            0 vlineto
            14 80 rlineto
            endchar
          </CharString>
          <CharString index="306">
            25 28 39 hhcurveto
            return
          </CharString>
          <CharString index="307">
            15 28 5 hvcurveto
            28 5 28 14 26 hhcurveto
            11 hlineto
            28 158 rlineto
            -13 hlineto
            -27 -26 11 29 5 hvcurveto
            29 5 29 11 return
          </CharString>
          <CharString index="308">
            -7 -147 113 rcurveline
            11 19 21 6 23 hhcurveto
            -37 -213 rmoveto
            -60 -44 41 65 12 195 callsubr
            return
          </CharString>
          <CharString index="309">
            -187 hlineto
            -62 -11 -50 -52 -85 hhcurveto
            -62 -49 28 54 2 247 callgsubr
            12 69 rcurveline
            endchar
          </CharString>
          <CharString index="310">
            rmoveto
            62 11 42 33 46 hhcurveto
            46 30 -33 -62 131 callsubr
            -42 -33 -46 hhcurveto
            -46 -30 33 62 11 hvcurveto
            endchar
          </CharString>
          <CharString index="311">
            hhcurveto
            71 232 callgsubr
            return
          </CharString>
          <CharString index="312">
            6 34 -2 29 -6 24 rrcurveto
            return
          </CharString>
          <CharString index="313">
            19 110 rlineto
            return
          </CharString>
          <CharString index="314">
            189 -100 callsubr
            return
          </CharString>
          <CharString index="315">
            250 rmoveto
            466 hlineto
            32 183 rlineto
            -466 hlineto
            endchar
          </CharString>
          <CharString index="316">
            rmoveto
            28 157 rlineto
            -5 -19 -36 -9 -37 hhcurveto
            -41 -35 18 38 8 hvcurveto
            30 6 22 15 39 hhcurveto
            55 hlineto
            return
          </CharString>
          <CharString index="317">
            -42 39 61 -24 81 hhcurveto
            64 53 19 32 41 hvcurveto
            -20 -114 -2 callgsubr
            endchar
          </CharString>
          <CharString index="318">
            615 571 rmoveto
            return
          </CharString>
          <CharString index="319">
            rmoveto
            -23 256 callgsubr
            -34 -6 -19 -24 -37 hhcurveto
            return
          </CharString>
          <CharString index="320">
            291 174 rmoveto
            -62 -47 39 65 11 hvcurveto
            2 9 2 8 3 8 147 -114 rcurveline
            -10 -17 return
          </CharString>
          <CharString index="321">
            64 callgsubr
            -24 -24 -15 -30 -6 -35 rrcurveto
            -125 -22 return
          </CharString>
          <CharString index="322">
            -67 callgsubr
            77 87 callgsubr
            return
          </CharString>
          <CharString index="323">
            -22 -28 -5 hvcurveto
            -27 -5 return
          </CharString>
          <CharString index="324">
            282 360 rmoveto
            20 3 17 8 19 hhcurveto
            167 hlineto
            25 143 rlineto
            0 vlineto
            7 40 rlineto
            return
          </CharString>
          <CharString index="325">
            rmoveto
            -25 -14 18 26 4 hvcurveto
            26 147 rlineto
            82 hlineto
            -26 -147 rlineto
            -26 -4 -16 -18 -27 hhcurveto
            return
          </CharString>
          <CharString index="326">
            -42 -1 -28 18 6 36 rrcurveto
            35 6 31 16 28 hhcurveto
            return
          </CharString>
          <CharString index="327">
            hhcurveto
            -200 -94 -119 -169 -29 hvcurveto
            -12 -69 rlineto
            return
          </CharString>
          <CharString index="328">
            -107 callgsubr
            303 hlineto
            return
          </CharString>
          <CharString index="329">
            hlineto
            67 88 27 95 17 hvcurveto
            return
          </CharString>
          <CharString index="330">
            -31 -31 -5 hvcurveto
            return
          </CharString>
          <CharString index="331">
            230 rlineto
            -371 -692 rmoveto
            -58 -1 -32 35 9 50 2 12 4 11 6 10 127 return
          </CharString>
          <CharString index="332">
            -107 callgsubr
            336 84 callsubr
            return
          </CharString>
          <CharString index="333">
            rmoveto
            301 callsubr
            endchar
          </CharString>
          <CharString index="334">
            rlineto
            200 hlineto
            -35 callgsubr
            endchar
          </CharString>
          <CharString index="335">
            -100 -18 callgsubr
            return
          </CharString>
          <CharString index="336">
            -267 -138 -198 rmoveto
            213 hlineto
            469 1153 rlineto
            -212 hlineto
            endchar
          </CharString>
          <CharString index="337">
            rmoveto
            -98 238 rlineto
            -202 hlineto
            93 -238 rlineto
            return
          </CharString>
          <CharString index="338">
            rrcurveto
            413 51 rmoveto
            -101 callsubr
            return
          </CharString>
          <CharString index="339">
            520 154 callgsubr
            return
          </CharString>
          <CharString index="340">
            -54 -46 -17 -31 -33 hvcurveto
            return
          </CharString>
          <CharString index="341">
            -27 -3 -6 -24 hvcurveto
            return
          </CharString>
          <CharString index="342">
            31 38 hhcurveto
            40 10 return
          </CharString>
          <CharString index="343">
            hlineto
            4 25 rlineto
            return
          </CharString>
          <CharString index="344">
            607 1319 -62 callgsubr
            -1295 -107 callgsubr
            return
          </CharString>
          <CharString index="345">
            6 callgsubr
            -29 234 callsubr
            return
          </CharString>
          <CharString index="346">
            rmoveto
            -57 -16 43 callsubr
            return
          </CharString>
          <CharString index="347">
            6 34 -2 28 -5 23 rrcurveto
            return
          </CharString>
          <CharString index="348">
            236 callgsubr
            -14 -77 rlineto
            return
          </CharString>
          <CharString index="349">
            rmoveto
            28 5 -19 22 -28 hhcurveto
            return
          </CharString>
          <CharString index="350">
            rmoveto
            31 169 rlineto
            return
          </CharString>
          <CharString index="351">
            -3 -6 -22 hvcurveto
            return
          </CharString>
          <CharString index="352">
            206 740 rmoveto
            -130 -740 rlineto
            202 hlineto
            130 740 rlineto
            return
          </CharString>
          <CharString index="353">
            hvcurveto
            205 callsubr
            return
          </CharString>
          <CharString index="354">
            184 callgsubr
            3 hvcurveto
            return
          </CharString>
          <CharString index="355">
            -60 -114 hhcurveto
            return
          </CharString>
          <CharString index="356">
            154 callgsubr
            458 223 callgsubr
            rlineto
            32 -23 -41 19 -59 hhcurveto
            return
          </CharString>
          <CharString index="357">
            242 callsubr
            -28 -25 246 callgsubr
            return
          </CharString>
          <CharString index="358">
            -20 -23 -4 hvcurveto
            130 callsubr
            return
          </CharString>
          <CharString index="359">
            76 callgsubr
            -63 rlineto
            return
          </CharString>
          <CharString index="360">
            286 callgsubr
            6 return
          </CharString>
          <CharString index="361">
            -32 -5 hvcurveto
            -33 return
          </CharString>
          <CharString index="362">
            245 callgsubr
            -16 hlineto
            -156 -124 -76 -161 -28 hvcurveto
            -13 return
          </CharString>
          <CharString index="363">
            -152 -27 126 -62 104 hhcurveto
            40 42 5 13 44 hvcurveto
            endchar
          </CharString>
          <CharString index="364">
            rcurveline
            218 hlineto
            return
          </CharString>
          <CharString index="365">
            174 hmoveto
            -49 callgsubr
            -87 hlineto
            return
          </CharString>
          <CharString index="366">
            -32 -27 -5 hvcurveto
            -5 -27 rlineto
            130 hlineto
            5 27 rlineto
            27 5 return
          </CharString>
          <CharString index="367">
            -120 -171 -31 hvcurveto
            -12 -67 rlineto
            return
          </CharString>
          <CharString index="368">
            294 callgsubr
            -5 -29 return
          </CharString>
          <CharString index="369">
            hlineto
            -20 -113 rlineto
            return
          </CharString>
          <CharString index="370">
            hlineto
            -24 -136 rlineto
            return
          </CharString>
          <CharString index="371">
            6 hvcurveto
            34 6 return
          </CharString>
          <CharString index="372">
            -9 -14 18 hvcurveto
            -430 -318 -1 -8 rlineto
            267 hlineto
            return
          </CharString>
          <CharString index="373">
            hlineto
            -7 -8 0 -1 -7 hvcurveto
            -8 6 -2 9 1 8 rrcurveto
            return
          </CharString>
          <CharString index="374">
            hlineto
            -55 -314 14 callgsubr
          </CharString>
          <CharString index="375">
            -29 -163 rlineto
            return
          </CharString>
          <CharString index="376">
            -169 rlineto
            462 hlineto
            -8 -44 rlineto
            -219 hlineto
            -105 return
          </CharString>
          <CharString index="377">
            1 5 hhcurveto
            190 callsubr
            hvcurveto
            -79 -14 -85 -14 return
          </CharString>
          <CharString index="378">
            hlineto
            3 17 rlineto
            137 24 -32 116 -172 hhcurveto
            return
          </CharString>
          <CharString index="379">
            rmoveto
            281 callsubr
            return
          </CharString>
          <CharString index="380">
            222 callgsubr
            -50 -14 -71 -43 -15 -86 return
          </CharString>
          <CharString index="381">
            288 callsubr
            endchar
          </CharString>
          <CharString index="382">
            -5 rrcurveto
            -2 27 20 0 21 hhcurveto
            return
          </CharString>
          <CharString index="383">
            -169 rlineto
            77 hlineto
            return
          </CharString>
          <CharString index="384">
            65 80 96 17 hvcurveto
            return
          </CharString>
          <CharString index="385">
            hmoveto
            222 hlineto
            return
          </CharString>
          <CharString index="386">
            hmoveto
            130 callgsubr
            return
          </CharString>
          <CharString index="387">
            206 302 callsubr
            return
          </CharString>
          <CharString index="388">
            54 -21 -53 40 -89 hhcurveto
            -51 -54 -12 -29 -47 hvcurveto
            return
          </CharString>
          <CharString index="389">
            hlineto
            20 34 14 37 6 36 4 26 rcurveline
            endchar
          </CharString>
          <CharString index="390">
            254 callgsubr
            82 98 return
          </CharString>
          <CharString index="391">
            -76 -130 -23 hvcurveto
            -7 return
          </CharString>
          <CharString index="392">
            -114 hhcurveto
            -8 hlineto
            -7 return
          </CharString>
          <CharString index="393">
            hvcurveto
            4 23 rlineto
            -171 hlineto
            -3 -10 -2 -10 return
          </CharString>
          <CharString index="394">
            hlineto
            -48 -272 rlineto
            -72 -18 -56 -31 -50 hhcurveto
            return
          </CharString>
          <CharString index="395">
            hhcurveto
            89 70 25 47 51 hvcurveto
            -24 -137 rlineto
            return
          </CharString>
          <CharString index="396">
            -28 hvcurveto
            -175 -28 136 -72 129 hhcurveto
            return
          </CharString>
          <CharString index="397">
            8 35 29 49 hhcurveto
            48 26 -29 -48 -8 hvcurveto
            return
          </CharString>
          <CharString index="398">
            rmoveto
            216 callgsubr
            return
          </CharString>
          <CharString index="399">
            -139 -121 -60 -150 -28 hvcurveto
            -138 return
          </CharString>
          <CharString index="400">
            rmoveto
            -59 -45 41 65 11 hvcurveto
            return
          </CharString>
          <CharString index="401">
            hhcurveto
            233 callsubr
            return
          </CharString>
          <CharString index="402">
            65 80 97 17 hvcurveto
            7 42 return
          </CharString>
          <CharString index="403">
            hlineto
            25 142 rlineto
            return
          </CharString>
          <CharString index="404">
            hlineto
            -54 -305 rlineto
            return
          </CharString>
          <CharString index="405">
            -29 -165 rlineto
            return
          </CharString>
          <CharString index="406">
            hvcurveto
            -195 hlineto
            return
          </CharString>
          <CharString index="407">
            rlineto
            220 hlineto
            return
          </CharString>
          <CharString index="408">
            220 hlineto
            37 212 183 callsubr
            return
          </CharString>
          <CharString index="409">
            286 callgsubr
            5 29 91 callsubr
            return
          </CharString>
          <CharString index="410">
            284 callgsubr
            41 230 rlineto
            return
          </CharString>
          <CharString index="411">
            hvcurveto
            -2 -12 rlineto
            199 hlineto
            3 17 rlineto
            return
          </CharString>
          <CharString index="412">
            hvcurveto
            3 callsubr
            69 12 53 35 62 hhcurveto
            return
          </CharString>
          <CharString index="413">
            rlineto
            183 -77 callsubr
            endchar
          </CharString>
          <CharString index="414">
            rlineto
            203 hlineto
            return
          </CharString>
          <CharString index="415">
            hvcurveto
            -2 -12 -1 return
          </CharString>
        <CharString name=".notdef">
          -166 0 vmoveto
          500 700 -500 hlineto
          250 -305 rmoveto
          -170 255 rlineto
          340 hlineto
          -140 -300 rmoveto
          170 255 rlineto
          -510 vlineto
          -370 -45 rmoveto
          170 255 170 -255 rlineto
          -370 555 rmoveto
          170 -255 -170 -255 rlineto
          endchar
        </CharString>
        <CharString name="A">
          107 477 -18 callsubr
          -25 167 125 callgsubr
        </CharString>
        <CharString name="AE">
          320 522 537 104 callgsubr
        </CharString>
        <CharString name="Aacute">
          107 478 -18 callsubr
          -116 787 -42 callgsubr
          -188 -730 125 callgsubr
        </CharString>
        <CharString name="Abreve">
          107 482 -18 callsubr
          214 840 -77 callgsubr
          -239 -673 125 callgsubr
        </CharString>
        <CharString name="Acircumflex">
          107 482 -18 callsubr
          181 773 -25 callgsubr
          -181 -462 125 callgsubr
        </CharString>
        <CharString name="Adieresis">
          107 484 -18 callsubr
          -118 657 rmoveto
          -99 callsubr
          225 hmoveto
          -99 callsubr
          -132 -490 125 callgsubr
        </CharString>
        <CharString name="Agrave">
          107 478 -18 callsubr
          -124 733 rmoveto
          242 -94 26 148 -239 110 rlineto
          70 -730 125 callgsubr
        </CharString>
        <CharString name="Amacron">
          107 486 -18 callsubr
          -218 659 rmoveto
          431 hlineto
          26 147 rlineto
          -431 hlineto
          167 -639 125 callgsubr
        </CharString>
        <CharString name="Aogonek">
          107 -43 hmoveto
          233 hlineto
          54 107 rlineto
          237 hlineto
          16 -109 -37 -25 -20 -31 -6 -39 rlinecurve
          29 callgsubr
          100 hlineto
          16 90 -130 693 rlineto
          -256 hlineto
          115 -434 rmoveto
          -129 hlineto
          99 197 rlineto
          endchar
        </CharString>
        <CharString name="Aring">
          107 479 -18 callsubr
          56 762 rmoveto
          -28 -5 -23 -19 -26 hhcurveto
          -26 -17 19 28 5 hvcurveto
          29 5 23 18 26 hhcurveto
          26 17 -18 -29 -5 hvcurveto
          -178 hmoveto
          -82 -14 50 -50 73 hhcurveto
          73 68 50 82 14 hvcurveto
          82 14 -50 50 -73 hhcurveto
          -73 -68 -50 -82 -14 hvcurveto
          97 -595 125 callgsubr
        </CharString>
        <CharString name="Atilde">
          107 484 -18 callsubr
          -234 649 -89 callsubr
          209 -482 125 callgsubr
        </CharString>
        <CharString name="B">
          18 410 227 rmoveto
          -35 -6 -22 -14 -40 hhcurveto
          -101 hlineto
          18 100 rlineto
          101 hlineto
          40 16 -17 -34 -6 hvcurveto
          29 254 rmoveto
          -34 -6 -21 -15 -40 hhcurveto
          -86 154 callsubr
          86 hlineto
          40 17 -16 -35 -7 hvcurveto
          192 -287 rmoveto
          14 79 -36 69 -83 21 73 18 59 58 15 85 rrcurveto
          123 22 -81 61 -141 hhcurveto
          -361 hlineto
          -124 -708 rlineto
          371 hlineto
          154 96 70 124 22 hvcurveto
          endchar
        </CharString>
        <CharString name="C">
          87 30 -26 callgsubr
          endchar
        </CharString>
        <CharString name="CR">
          -496 endchar
        </CharString>
        <CharString name="Cacute">
          87 32 -26 callgsubr
          305 539 -42 callgsubr
          endchar
        </CharString>
        <CharString name="Ccaron">
          86 35 -26 callgsubr
          438 522 -34 callsubr
        </CharString>
        <CharString name="Ccedilla">
          87 41 355 rmoveto
          -33 -189 83 -140 174 -26 -23 -127 rcurveline
          10 callsubr
          -77 27 -48 hhcurveto
          5 27 155 22 120 105 52 147 rlinecurve
          -234 hlineto
          -47 -30 -46 -27 -50 hhcurveto
          -75 -36 61 94 17 hvcurveto
          94 17 56 61 75 hhcurveto
          50 38 -27 -47 12 hvcurveto
          234 hlineto
          167 1 -108 112 -187 hhcurveto
          -217 -159 -149 -211 -37 hvcurveto
          endchar
        </CharString>
        <CharString name="Cdotaccent">
          87 38 -26 callgsubr
          415 409 rmoveto
          -99 callsubr
          endchar
        </CharString>
        <CharString name="D">
          77 407 116 callgsubr
          endchar
        </CharString>
        <CharString name="Dcaron">
          77 402 116 callgsubr
          175 679 -34 callsubr
        </CharString>
        <CharString name="Dcroat">
          76 414 76 callsubr
        </CharString>
        <CharString name="E">
          -110 584 -63 callgsubr
          endchar
        </CharString>
        <CharString name="Eacute">
          -110 575 -63 callgsubr
          -307 362 -42 callgsubr
          endchar
        </CharString>
        <CharString name="Ebreve">
          -110 579 -63 callgsubr
          22 415 -77 callgsubr
          endchar
        </CharString>
        <CharString name="Ecaron">
          -110 579 -63 callgsubr
          -176 345 -34 callsubr
        </CharString>
        <CharString name="Ecircumflex">
          -110 579 -63 callgsubr
          -11 348 -25 callgsubr
          endchar
        </CharString>
        <CharString name="Edieresis">
          -111 581 -63 callgsubr
          -310 232 rmoveto
          -99 callsubr
          225 hmoveto
          -99 callsubr
          endchar
        </CharString>
        <CharString name="Edotaccent">
          -110 581 -63 callgsubr
          -197 232 rmoveto
          -99 callsubr
          endchar
        </CharString>
        <CharString name="Egrave">
          -110 575 -63 callgsubr
          -316 308 17 callgsubr
        </CharString>
        <CharString name="Emacron">
          -110 584 -63 callgsubr
          -410 234 57 callsubr
        </CharString>
        <CharString name="Eogonek">
          -110 580 708 rmoveto
          -472 hlineto
          -124 -708 rlineto
          200 hlineto
          -3 -7 -2 -7 -1 -8 rrcurveto
          29 callgsubr
          101 170 callsubr
          -250 hlineto
          17 100 300 callsubr
          30 167 183 callsubr
          15 88 rlineto
          250 hlineto
          endchar
        </CharString>
        <CharString name="Eth">
          77 407 76 callsubr
        </CharString>
        <CharString name="Euro">
          124 67 355 rmoveto
          -1 -4 0 -4 -1 -4 rrcurveto
          -52 hlineto
          -18 -99 rlineto
          66 hlineto
          -150 13 103 -99 177 hhcurveto
          187 146 112 167 59 hvcurveto
          -234 hlineto
          -47 -30 -46 -27 -50 hhcurveto
          -38 -28 16 28 -16 hvcurveto
          127 hlineto
          18 99 rlineto
          -159 hlineto
          1 4 0 4 1 4 1 5 1 6 1 5 rrcurveto
          159 154 callsubr
          -124 hlineto
          25 25 32 14 36 hhcurveto
          50 38 -27 -47 12 hvcurveto
          234 hlineto
          167 1 -108 112 -187 hhcurveto
          -175 -137 -96 -148 -66 hvcurveto
          -67 268 callgsubr
          52 hlineto
          -1 -5 -1 -6 -1 -5 rrcurveto
          endchar
        </CharString>
        <CharString name="F">
          -91 -12 278 callsubr
          47 267 rlineto
          200 hlineto
          29 167 rlineto
          -200 hlineto
          17 98 rlineto
          278 hlineto
          31 176 rlineto
          -500 hlineto
          endchar
        </CharString>
        <CharString name="G">
          86 30 365 -40 callsubr
          endchar
        </CharString>
        <CharString name="Gbreve">
          86 26 365 -40 callsubr
          635 582 -77 callgsubr
          endchar
        </CharString>
        <CharString name="Gdotaccent">
          86 28 365 -40 callsubr
          416 399 rmoveto
          -99 callsubr
          endchar
        </CharString>
        <CharString name="H">
          89 421 74 callgsubr
          -45 -255 rlineto
          -211 hlineto
          45 255 115 callsubr
          276 callgsubr
          48 276 rlineto
          211 hlineto
          endchar
        </CharString>
        <CharString name="I">
          -344 -12 74 callgsubr
          endchar
        </CharString>
        <CharString name="Iacute">
          -345 -11 74 callgsubr
          8 186 -42 callgsubr
          endchar
        </CharString>
        <CharString name="Icircumflex">
          -344 -7 74 callgsubr
          305 172 -25 callgsubr
          endchar
        </CharString>
        <CharString name="Idieresis">
          -344 -5 74 callgsubr
          7 56 rmoveto
          -99 callsubr
          225 hmoveto
          -99 callsubr
          endchar
        </CharString>
        <CharString name="Idotaccent">
          -344 -5 74 callgsubr
          119 56 rmoveto
          -99 callsubr
          endchar
        </CharString>
        <CharString name="Igrave">
          -345 -11 74 callgsubr
          -1 132 17 callgsubr
        </CharString>
        <CharString name="Imacron">
          -344 -2 74 callgsubr
          -94 58 57 callsubr
        </CharString>
        <CharString name="Iogonek">
          -345 236 -106 rmoveto
          -145 hlineto
          -16 -9 6 10 2 hvcurveto
          10 2 11 5 16 hhcurveto
          100 hlineto
          14 75 rlineto
          0 vlineto
          244 callgsubr
          -222 hlineto
          -124 -705 -32 -19 -28 -31 -9 -50 rlinecurve
          -95 -17 78 -27 67 hhcurveto
          168 hlineto
          endchar
        </CharString>
        <CharString name="Itilde">
          -344 -4 74 callgsubr
          -111 48 -89 callsubr
          endchar
        </CharString>
        <CharString name="J">
          -76 305 251 rmoveto
          -46 -8 -20 -12 -24 hhcurveto
          -29 -20 16 62 11 hvcurveto
          -219 hlineto
          -186 -33 99 -92 166 hhcurveto
          156 112 85 173 30 hvcurveto
          81 457 rlineto
          -221 hlineto
          endchar
        </CharString>
        <CharString name="K">
          89 416 hmoveto
          159 callgsubr
        </CharString>
        <CharString name="L">
          -160 112 708 rmoveto
          102 callgsubr
          endchar
        </CharString>
        <CharString name="Lacute">
          -160 103 708 rmoveto
          102 callgsubr
          -106 186 -42 callgsubr
          endchar
        </CharString>
        <CharString name="Lcaron">
          -89 431 708 rmoveto
          -26 42 callsubr
          8 42 1 46 -10 46 rrcurveto
          -478 hmoveto
          102 callgsubr
          endchar
        </CharString>
        <CharString name="Ldot">
          -160 110 708 rmoveto
          102 callgsubr
          48 -440 rmoveto
          -99 callsubr
          endchar
        </CharString>
        <CharString name="Lslash">
          -145 127 708 rmoveto
          -45 -256 -57 -15 -38 -216 57 15 -41 -236 rlineto
          436 hlineto
          29 168 rlineto
          -214 hlineto
          23 129 79 21 38 216 -79 -21 34 195 rlineto
          endchar
        </CharString>
        <CharString name="M">
          285 -12 278 callsubr
          62 353 47 -353 rlineto
          190 hlineto
          171 354 -62 -354 rlineto
          221 hlineto
          244 callgsubr
          -271 hlineto
          -226 -424 -82 424 rlineto
          -272 hlineto
          endchar
        </CharString>
        <CharString name="N">
          113 569 708 21 callgsubr
          endchar
        </CharString>
        <CharString name="NULL">
          -666 endchar
        </CharString>
        <CharString name="Nacute">
          112 560 708 21 callgsubr
          -443 186 -42 callgsubr
          endchar
        </CharString>
        <CharString name="Ncaron">
          113 564 708 21 callgsubr
          -311 169 -34 callsubr
        </CharString>
        <CharString name="Ntilde">
          113 567 708 21 callgsubr
          -562 48 -89 callsubr
          endchar
        </CharString>
        <CharString name="O">
          106 32 -89 callgsubr
          endchar
        </CharString>
        <CharString name="OE">
          384 262 364 rmoveto
          92 16 58 59 88 hhcurveto
          89 38 -63 -98 -17 hvcurveto
          -98 -18 -59 -63 -89 hhcurveto
          -87 -37 67 104 18 hvcurveto
          785 168 rmoveto
          31 176 rlineto
          -472 hlineto
          -6 -37 rlineto
          34 -40 -63 15 -63 hhcurveto
          -217 -150 -143 -203 -36 hvcurveto
          -226 -40 121 -160 202 hhcurveto
          60 3 64 13 50 33 -7 -37 rcurveline
          472 170 callsubr
          -250 hlineto
          18 100 300 callsubr
          29 167 183 callsubr
          16 88 rlineto
          endchar
        </CharString>
        <CharString name="Oacute">
          106 16 -89 callgsubr
          -171 547 -42 callgsubr
          endchar
        </CharString>
        <CharString name="Ocircumflex">
          106 20 -89 callgsubr
          125 533 -25 callgsubr
          endchar
        </CharString>
        <CharString name="Odieresis">
          106 22 -89 callgsubr
          -173 417 rmoveto
          -99 callsubr
          225 hmoveto
          -99 callsubr
          endchar
        </CharString>
        <CharString name="Ograve">
          106 24 -89 callgsubr
          -180 493 17 callgsubr
        </CharString>
        <CharString name="Ohungarumlaut">
          106 18 -89 callgsubr
          114 642 66 callsubr
        </CharString>
        <CharString name="Omacron">
          106 32 -89 callgsubr
          -273 419 57 callsubr
        </CharString>
        <CharString name="Oslash">
          122 31 397 rmoveto
          -20 -113 17 -98 49 -71 -122 -114 rcurveline
          116 hlineto
          61 57 rlineto
          -42 55 73 -23 92 hhcurveto
          209 145 134 190 33 hvcurveto
          19 107 -15 93 -45 70 134 125 rcurveline
          -115 hlineto
          -71 -66 rlineto
          47 -55 -77 27 -94 hhcurveto
          -210 -145 -133 -190 -34 hvcurveto
          216 -30 rmoveto
          90 16 56 58 85 hhcurveto
          33 26 -8 -13 20 hvcurveto
          -233 -218 -8 25 -1 31 6 35 rlinecurve
          121 -167 rmoveto
          -27 -23 5 10 -18 hvcurveto
          225 210 4 -22 0 -27 -5 -29 rlinecurve
          -88 -15 -57 -59 -84 hhcurveto
          endchar
        </CharString>
        <CharString name="Otilde">
          106 23 -89 callgsubr
          -291 409 -89 callsubr
          endchar
        </CharString>
        <CharString name="P">
          -17 280 400 rmoveto
          23 130 rlineto
          63 hlineto
          50 14 -26 -39 -6 hvcurveto
          -39 -7 -24 -26 -50 hhcurveto
          306 65 rmoveto
          143 25 -74 100 -178 hhcurveto
          -310 hlineto
          276 callgsubr
          39 225 rlineto
          88 hlineto
          178 110 109 131 24 hvcurveto
          endchar
        </CharString>
        <CharString name="Q">
          106 525 347 rmoveto
          -88 -15 -57 -59 -84 hhcurveto
          -99 -39 67 100 17 hvcurveto
          90 16 56 58 85 hhcurveto
          97 41 -66 -102 -18 hvcurveto
          -493 50 rmoveto
          -236 -42 118 -168 245 hhcurveto
          6 hlineto
          46 -108 rlineto
          262 hlineto
          -95 168 89 57 59 94 20 113 rlinecurve
          236 42 -125 167 -236 hhcurveto
          -210 -145 -133 -190 -34 hvcurveto
          endchar
        </CharString>
        <CharString name="R">
          4 443 24 callsubr
          endchar
        </CharString>
        <CharString name="Racute">
          4 434 24 callsubr
          -133 186 -42 callgsubr
          endchar
        </CharString>
        <CharString name="Rcaron">
          4 438 24 callsubr
          -1 169 -34 callsubr
        </CharString>
        <CharString name="S">
          -45 294 513 -41 callsubr
          endchar
        </CharString>
        <CharString name="Sacute">
          -45 284 513 -41 callsubr
          -21 381 -42 callgsubr
          endchar
        </CharString>
        <CharString name="Scaron">
          -44 288 513 -41 callsubr
          110 364 -34 callsubr
        </CharString>
        <CharString name="T">
          -50 41 532 137 callsubr
          endchar
        </CharString>
        <CharString name="Tcaron">
          -50 36 532 137 callsubr
          327 169 -34 callsubr
        </CharString>
        <CharString name="Thorn">
          -17 261 290 rmoveto
          23 130 rlineto
          63 hlineto
          50 14 -26 -39 -7 hvcurveto
          -39 -7 -23 -26 -50 hhcurveto
          305 65 rmoveto
          137 24 -74 96 -178 hhcurveto
          -90 hlineto
          21 120 183 callsubr
          276 callgsubr
          22 125 rlineto
          88 hlineto
          178 109 104 126 22 hvcurveto
          endchar
        </CharString>
        <CharString name="U">
          53 39 -80 callsubr
          endchar
        </CharString>
        <CharString name="Uacute">
          53 31 -80 callsubr
          209 186 -42 callgsubr
          endchar
        </CharString>
        <CharString name="Ubreve">
          53 35 -80 callsubr
          539 239 -77 callgsubr
          endchar
        </CharString>
        <CharString name="Ucircumflex">
          53 35 -80 callsubr
          506 172 -25 callgsubr
          endchar
        </CharString>
        <CharString name="Udieresis">
          53 37 -80 callsubr
          207 56 rmoveto
          -99 callsubr
          225 hmoveto
          -99 callsubr
          endchar
        </CharString>
        <CharString name="Ugrave">
          53 31 -80 callsubr
          200 132 17 callgsubr
        </CharString>
        <CharString name="Uhungarumlaut">
          53 32 -80 callsubr
          437 281 66 callsubr
        </CharString>
        <CharString name="Umacron">
          53 39 -80 callsubr
          108 58 57 callsubr
        </CharString>
        <CharString name="Uogonek">
          53 38 309 rmoveto
          -30 -175 86 -104 121 -29 -1 -5 0 -4 -1 -5 rrcurveto
          -90 -16 67 -38 59 hhcurveto
          176 hlineto
          20 112 rlineto
          -133 hlineto
          -20 -7 6 9 2 hvcurveto
          1 9 7 7 30 8 110 30 127 100 29 169 71 399 rcurveline
          -221 hlineto
          -71 -399 rlineto
          -61 -10 -35 -45 -67 hhcurveto
          -67 -16 45 61 10 hvcurveto
          71 399 rlineto
          -221 hlineto
          endchar
        </CharString>
        <CharString name="Uring">
          53 31 -80 callsubr
          204 161 47 callgsubr
        </CharString>
        <CharString name="Utilde">
          53 37 -80 callsubr
          91 48 -89 callsubr
          endchar
        </CharString>
        <CharString name="V">
          97 176 hmoveto
          287 hlineto
          362 708 rlineto
          -236 hlineto
          -230 -487 -61 487 rlineto
          -236 hlineto
          endchar
        </CharString>
        <CharString name="W">
          434 130 -9 callsubr
          endchar
        </CharString>
        <CharString name="Wacute">
          434 122 -9 callsubr
          417 186 -42 callgsubr
          endchar
        </CharString>
        <CharString name="Wcircumflex">
          434 125 -9 callsubr
          715 172 -25 callgsubr
          endchar
        </CharString>
        <CharString name="Wdieresis">
          434 128 -9 callsubr
          415 56 rmoveto
          -99 callsubr
          225 hmoveto
          -99 callsubr
          endchar
        </CharString>
        <CharString name="Wgrave">
          434 122 -9 callsubr
          408 132 17 callgsubr
        </CharString>
        <CharString name="X">
          98 439 hmoveto
          263 hlineto
          -186 350 291 358 rlineto
          -253 hlineto
          -135 -177 -94 177 rlineto
          -263 hlineto
          183 -343 -297 -365 rlineto
          253 hlineto
          140 184 rlineto
          endchar
        </CharString>
        <CharString name="Y">
          64 229 11 callgsubr
          endchar
        </CharString>
        <CharString name="Yacute">
          64 220 11 callgsubr
          263 186 -42 callgsubr
          endchar
        </CharString>
        <CharString name="Ycircumflex">
          64 224 11 callgsubr
          559 172 -25 callgsubr
          endchar
        </CharString>
        <CharString name="Ydieresis">
          64 226 11 callgsubr
          261 56 rmoveto
          -99 callsubr
          225 hmoveto
          -99 callsubr
          endchar
        </CharString>
        <CharString name="Ygrave">
          64 220 11 callgsubr
          254 132 17 callgsubr
        </CharString>
        <CharString name="Z">
          -36 642 48 callsubr
          endchar
        </CharString>
        <CharString name="Zacute">
          -36 633 48 callsubr
          -338 353 -42 callgsubr
          endchar
        </CharString>
        <CharString name="Zcaron">
          -36 637 48 callsubr
          -207 336 -34 callsubr
        </CharString>
        <CharString name="Zdotaccent">
          -37 639 48 callsubr
          -229 223 rmoveto
          -99 callsubr
          endchar
        </CharString>
        <CharString name="a">
          17 23 -90 callgsubr
          endchar
        </CharString>
        <CharString name="aacute">
          15 28 -90 callgsubr
          -153 468 -42 callgsubr
          endchar
        </CharString>
        <CharString name="abreve">
          16 32 -90 callgsubr
          177 521 -77 callgsubr
          endchar
        </CharString>
        <CharString name="acircumflex">
          15 12 -90 callgsubr
          144 454 -25 callgsubr
          endchar
        </CharString>
        <CharString name="acute">
          -387 73 750 -42 callgsubr
          endchar
        </CharString>
        <CharString name="adieresis">
          15 34 -90 callgsubr
          -155 338 rmoveto
          -99 callsubr
          225 hmoveto
          -99 callsubr
          endchar
        </CharString>
        <CharString name="ae">
          391 744 13 callsubr
          endchar
        </CharString>
        <CharString name="agrave">
          15 28 -90 callgsubr
          -162 414 17 callgsubr
        </CharString>
        <CharString name="amacron">
          15 17 -90 callgsubr
          -255 340 57 callsubr
        </CharString>
        <CharString name="ampersand">
          34 349 31 rmoveto
          13 7 13 9 11 9 31 -56 rcurveline
          221 hlineto
          -252 468 -11 22 -4 10 2 12 rlinecurve
          12 2 9 8 12 hhcurveto
          16 6 -9 -18 -11 -2 -14 -3 -16 hvcurveto
          206 hlineto
          9 39 4 43 -7 38 rrcurveto
          72 -16 -50 59 -134 hhcurveto
          -147 -92 -87 -91 -16 hvcurveto
          -5 -30 0 -27 5 -26 2 -10 4 -9 4 -9 -87 -24 -73 -77 -19 -107 rrcurveto
          -120 -21 60 -105 160 hhcurveto
          58 50 15 23 41 hvcurveto
          -158 193 rmoveto
          28 5 24 18 31 hhcurveto
          31 18 -18 -28 -5 hvcurveto
          -29 -5 -24 -19 -31 hhcurveto
          -31 -18 19 29 5 hvcurveto
          endchar
        </CharString>
        <CharString name="aogonek">
          15 32 302 rmoveto
          -194 -34 76 -115 140 hhcurveto
          75 60 236 callgsubr
          -13 -72 -33 -18 -31 -32 -9 -52 rlinecurve
          29 callgsubr
          100 hlineto
          14 75 rlineto
          2 hlineto
          100 564 rlineto
          -221 hlineto
          -14 -77 rlineto
          51 -18 -53 33 -80 hhcurveto
          -125 -119 -99 -170 -30 hvcurveto
          389 -20 rmoveto
          -62 -11 -42 -33 -46 hhcurveto
          -46 -30 33 62 11 hvcurveto
          62 11 42 33 46 hhcurveto
          46 30 -33 -62 -11 hvcurveto
          endchar
        </CharString>
        <CharString name="approxequal">
          44 -23 70 75 callgsubr
          48 275 75 callgsubr
          endchar
        </CharString>
        <CharString name="aring">
          15 9 -90 callgsubr
          -159 443 47 callgsubr
        </CharString>
        <CharString name="asciicircum">
          92 465 162 rmoveto
          220 hlineto
          -148 549 rlineto
          -218 hlineto
          -342 -549 300 callsubr
          187 298 rlineto
          endchar
        </CharString>
        <CharString name="asciitilde">
          45 -3 181 75 callgsubr
          endchar
        </CharString>
        <CharString name="asterisk">
          -105 390 744 rmoveto
          -142 hlineto
          10 -119 -77 83 -89 -121 104 -32 -118 -36 52 -129 101 87 -49 -117 rlineto
          139 hlineto
          -7 117 72 -86 95 127 -105 34 117 36 -45 121 -108 -84 rlineto
          endchar
        </CharString>
        <CharString name="at">
          687 753 282 rmoveto
          -79 -23 -54 -16 -31 hhcurveto
          -33 -47 15 79 24 hvcurveto
          79 23 54 16 32 hhcurveto
          31 48 -14 -80 -24 hvcurveto
          -376 -4 rmoveto
          -170 -52 69 -114 137 hhcurveto
          100 67 49 78 54 hvcurveto
          -87 10 69 -40 99 hhcurveto
          184 196 165 208 37 hvcurveto
          318 56 -205 158 -337 hhcurveto
          -368 -387 -208 -408 -72 hvcurveto
          -54 -306 156 -201 383 -5 73 179 rcurveline
          -290 -4 -88 147 34 190 rrcurveto
          241 42 194 195 311 hhcurveto
          247 110 -121 -183 -32 hvcurveto
          -123 -22 -68 -49 -50 hhcurveto
          -32 -10 17 54 16 hvcurveto
          20 68 rlineto
          168 49 -104 73 -147 hhcurveto
          -184 -161 -119 -170 -50 hvcurveto
          endchar
        </CharString>
        <CharString name="atilde">
          15 34 -90 callgsubr
          -272 330 -89 callsubr
          endchar
        </CharString>
        <CharString name="b">
          16 236 77 rmoveto
          197 callsubr
          45 253 rlineto
          -222 234 callgsubr
          222 hlineto
          49 282 203 callsubr
        </CharString>
        <CharString name="backslash">
          212 514 955 rmoveto
          -212 hlineto
          36 -1153 rlineto
          212 hlineto
          endchar
        </CharString>
        <CharString name="bar">
          -404 106 828 rmoveto
          -172 -972 115 callgsubr
          172 972 rlineto
          endchar
        </CharString>
        <CharString name="braceleft">
          -153 247 373 rmoveto
          76 14 40 37 14 78 11 65 -5 58 11 67 26 146 78 78 82 29 3 16 rcurveline
          -227 hlineto
          -41 -17 -111 -70 -33 -185 -13 -72 8 -52 -12 -69 rrcurveto
          -45 -8 -30 -43 -73 hhcurveto
          -12 -72 rlineto
          69 18 -43 -45 -8 hvcurveto
          -12 -69 -26 -52 -13 -72 -33 -185 87 -70 35 -17 rrcurveto
          227 hlineto
          3 16 -72 29 -50 78 26 146 rlinecurve
          12 68 26 57 11 65 14 78 -29 38 -69 13 rrcurveto
          endchar
        </CharString>
        <CharString name="braceright">
          -177 268 371 rmoveto
          -73 -13 -42 -30 -11 -66 -12 -65 6 -57 -12 -68 -24 -136 -82 -108 -83 -29 -3 -16 rcurveline
          226 hlineto
          41 17 111 70 33 185 13 72 -8 52 12 69 8 45 36 52 67 -9 12 72 rcurveline
          -69 -7 -18 50 8 45 12 69 26 52 13 72 33 185 -87 70 -35 17 rrcurveto
          -226 hlineto
          -3 -16 73 -29 44 -108 -24 -136 rlinecurve
          -12 -67 -26 -58 -12 -65 -11 -66 29 -29 70 -14 rrcurveto
          endchar
        </CharString>
        <CharString name="bracketleft">
          -133 -7 -199 rmoveto
          382 hlineto
          32 178 rlineto
          -174 hlineto
          140 798 rlineto
          174 hlineto
          32 178 rlineto
          -382 hlineto
          endchar
        </CharString>
        <CharString name="bracketright">
          -136 538 955 rmoveto
          -382 hlineto
          -32 -178 rlineto
          175 hlineto
          -140 -798 rlineto
          -175 hlineto
          -32 -178 rlineto
          382 hlineto
          endchar
        </CharString>
        <CharString name="breve">
          -271 462 803 -77 callgsubr
          endchar
        </CharString>
        <CharString name="brokenbar">
          -234 95 287 rmoveto
          -76 -431 115 callgsubr
          76 431 rlineto
          20 111 rmoveto
          76 430 115 callsubr
          -76 -430 rlineto
          endchar
        </CharString>
        <CharString name="bullet">
          -130 238 166 rmoveto
          95 86 73 94 17 hvcurveto
          95 17 -60 74 -95 hhcurveto
          -94 -87 -74 -95 -17 hvcurveto
          -94 -17 61 -73 94 hhcurveto
          endchar
        </CharString>
        <CharString name="c">
          -50 22 -19 callgsubr
          endchar
        </CharString>
        <CharString name="cacute">
          -56 16 -19 callgsubr
          216 448 -42 callgsubr
          endchar
        </CharString>
        <CharString name="caron">
          -315 241 733 -34 callsubr
        </CharString>
        <CharString name="ccaron">
          -56 20 -19 callgsubr
          348 431 -34 callsubr
        </CharString>
        <CharString name="ccedilla">
          -56 25 302 rmoveto
          -29 -165 71 -110 128 -27 -23 -127 rcurveline
          10 callsubr
          -77 27 -48 hhcurveto
          4 25 119 21 98 81 45 127 rlinecurve
          -235 hlineto
          -27 -12 -18 -17 -28 hhcurveto
          -34 -19 31 68 12 hvcurveto
          68 12 29 31 34 hhcurveto
          28 12 -17 -27 4 hvcurveto
          235 hlineto
          148 -1 -98 86 -151 hhcurveto
          -164 -135 -101 -168 -30 hvcurveto
          endchar
        </CharString>
        <CharString name="cdotaccent">
          -56 22 -19 callgsubr
          326 318 rmoveto
          -99 callsubr
          endchar
        </CharString>
        <CharString name="cedilla">
          -323 228 7 rmoveto
          -128 hlineto
          -24 -134 rlineto
          10 callsubr
          -77 27 -48 hhcurveto
          endchar
        </CharString>
        <CharString name="cent">
          -87 551 205 rmoveto
          -203 hlineto
          -25 -11 -31 -10 -20 hhcurveto
          -46 -17 31 52 9 hvcurveto
          52 9 29 32 46 hhcurveto
          20 23 -8 -27 6 hvcurveto
          203 hlineto
          14 125 -84 70 -108 14 13 78 rcurveline
          -91 hlineto
          -13 -78 -145 -15 -107 -89 -27 -153 rlinecurve
          -27 -155 75 -89 140 -16 -14 -77 rcurveline
          91 hlineto
          14 78 114 15 108 70 30 125 rlinecurve
          endchar
        </CharString>
        <CharString name="circumflex">
          -315 406 736 -25 callgsubr
          endchar
        </CharString>
        <CharString name="colon">
          -334 9 hmoveto
          301 callsubr
          32 179 226 callsubr
        </CharString>
        <CharString name="comma">
          -390 55 131 119 callsubr
        </CharString>
        <CharString name="copyright">
          105 741 358 rmoveto
          -213 -37 -171 -151 -211 hhcurveto
          -211 -118 151 213 37 hvcurveto
          213 38 171 149 211 hhcurveto
          211 118 -149 -213 -38 hvcurveto
          -641 hmoveto
          -180 -32 88 -119 177 hhcurveto
          176 131 119 180 32 hvcurveto
          181 32 -89 116 -176 hhcurveto
          -177 -130 -116 -181 -32 hvcurveto
          64 -1 rmoveto
          -136 -24 76 -85 135 hhcurveto
          107 101 69 111 36 hvcurveto
          -184 hlineto
          -17 -8 -13 -18 -23 hhcurveto
          -28 -13 24 52 9 hvcurveto
          52 9 21 24 28 hhcurveto
          23 7 -18 -17 2 hvcurveto
          184 hlineto
          111 4 -77 69 -107 hhcurveto
          -135 -106 -85 -136 -24 hvcurveto
          endchar
        </CharString>
        <CharString name="currency">
          -63 245 377 rmoveto
          44 8 31 15 30 hhcurveto
          30 25 -15 -44 -8 hvcurveto
          -42 -7 -31 -15 -30 hhcurveto
          -30 -25 15 42 7 hvcurveto
          326 164 rmoveto
          -65 81 -85 -72 rlineto
          7 -25 -28 4 -32 hhcurveto
          -33 -31 -4 -8 -29 hvcurveto
          -60 73 -95 -81 44 -53 -29 -29 -19 -37 -8 -43 rlinecurve
          -7 -43 6 -36 18 -29 -61 -52 rcurveline
          65 -81 81 69 rlineto
          -9 27 31 -5 35 hhcurveto
          33 32 4 9 29 hvcurveto
          55 -68 95 81 -41 49 30 30 20 37 8 44 rlinecurve
          8 45 -8 38 -20 29 rrcurveto
          endchar
        </CharString>
        <CharString name="d">
          10 446 487 82 callsubr
        </CharString>
        <CharString name="dagger">
          51 498 549 rmoveto
          65 245 115 callsubr
          -22 -245 -215 15 -29 -166 220 15 -142 -683 115 callgsubr
          99 683 216 -15 29 166 rlineto
          endchar
        </CharString>
        <CharString name="daggerdbl">
          50 719 564 rmoveto
          -221 -15 64 245 115 callsubr
          -21 -245 -216 15 -29 -166 221 15 -54 -302 -215 16 -29 -167 220 15 -65 -245 115 callgsubr
          22 245 217 -15 29 167 -222 -16 54 302 216 -15 rlineto
          endchar
        </CharString>
        <CharString name="danda">
          -283 245 callsubr
          endchar
        </CharString>
        <CharString name="dcaron">
          190 741 740 rmoveto
          -26 -146 300 callgsubr
          -12 rlineto
          -51 -9 299 callgsubr
          -14 -79 rlineto
          114 295 callsubr
          0 46 -9 46 rrcurveto
          -441 -253 82 callsubr
        </CharString>
        <CharString name="dcroat">
          13 456 487 rmoveto
          51 -18 -52 156 callgsubr
          59 241 callsubr
          222 hlineto
          105 592 rlineto
          32 hlineto
          17 96 rlineto
          -32 hlineto
          9 52 115 callsubr
          -9 -52 rlineto
          -91 hlineto
          -17 -96 rlineto
          91 hlineto
          -54 -310 rmoveto
          -62 -11 -42 -33 -46 hhcurveto
          -46 -30 33 62 11 hvcurveto
          62 11 42 33 46 hhcurveto
          46 30 -33 -62 -11 hvcurveto
          endchar
        </CharString>
        <CharString name="degree">
          -170 23 533 rmoveto
          -114 -20 83 -72 135 hhcurveto
          135 97 72 114 20 hvcurveto
          115 21 -78 67 -135 hhcurveto
          -136 -101 -67 -115 -21 hvcurveto
          281 -2 rmoveto
          -49 -9 -30 -18 -24 hhcurveto
          -26 -32 18 49 9 hvcurveto
          51 9 35 18 26 hhcurveto
          24 27 -18 -51 -9 hvcurveto
          endchar
        </CharString>
        <CharString name="dieresis">
          -249 140 620 rmoveto
          -99 callsubr
          225 hmoveto
          -99 callsubr
          endchar
        </CharString>
        <CharString name="divide">
          -115 2 240 rmoveto
          511 hlineto
          36 201 rlineto
          -511 hlineto
          66 -441 rmoveto
          301 callsubr
          46 257 226 callsubr
        </CharString>
        <CharString name="dollar">
          -1 226 -87 rmoveto
          51 hlineto
          14 80 rlineto
          180 119 96 120 21 hvcurveto
          30 171 -167 31 -103 36 17 99 rcurveline
          15 -8 9 -16 -2 -31 rrcurveto
          239 hlineto
          15 140 -87 79 -158 9 14 81 rcurveline
          -51 hlineto
          -14 -80 -149 -6 -139 -73 -24 -137 rlinecurve
          -31 -174 159 -32 104 -31 -17 -99 rcurveline
          -18 9 -11 18 3 32 rrcurveto
          -236 hlineto
          -16 -144 99 -75 148 -13 rrcurveto
          133 209 rmoveto
          -4 -26 -22 -14 -26 -3 15 89 rcurveline
          26 -11 15 -14 -4 -21 rrcurveto
          -77 310 rmoveto
          3 22 15 12 24 3 -15 -84 rcurveline
          -20 12 -11 15 4 20 rrcurveto
          endchar
        </CharString>
        <CharString name="dotaccent">
          -474 140 620 rmoveto
          -99 callsubr
          endchar
        </CharString>
        <CharString name="dotlessi">
          -354 -5 112 callgsubr
          endchar
        </CharString>
        <CharString name="dottedcircle">
          -15 557 409 -10 callsubr
          -376 -286 -10 callsubr
          98 -76 -10 callsubr
          -143 189 -10 callsubr
          267 -203 -10 callsubr
          -252 324 -10 callsubr
          367 -278 -10 callsubr
          -291 377 -10 callsubr
          364 -281 -10 callsubr
          -247 323 -10 callsubr
          257 -203 -10 callsubr
          -136 188 -10 callsubr
          endchar
        </CharString>
        <CharString name="doubledanda">
          29 245 callsubr
          109 hmoveto
          -130 -740 307 callsubr
          130 740 rlineto
          endchar
        </CharString>
        <CharString name="dvA">
          179 231 493 rmoveto
          -37 callgsubr
          203 hlineto
          215 callsubr
          -280 -54 callsubr
          endchar
        </CharString>
        <CharString name="dvAA">
          513 231 493 rmoveto
          -37 callgsubr
          203 hlineto
          213 callgsubr
          -614 -54 callsubr
          endchar
        </CharString>
        <CharString name="dvAI">
          -13 282 19 rmoveto
          46 callgsubr
          71 -87 callsubr
          -83 hlineto
          -85 238 -52 33 -169 167 callgsubr
          82 15 -18 -91 45 hvcurveto
          -402 172 callsubr
          endchar
        </CharString>
        <CharString name="dvAU">
          196 callgsubr
          -91 hlineto
          335 -116 -22 16 -167 -28 callsubr
          106 -17 0 -51 90 hvcurveto
          -345 -54 callsubr
          -49 hlineto
          -37 callgsubr
          endchar
        </CharString>
        <CharString name="dvAbbreviationsign">
          -201 264 500 rmoveto
          -104 -85 -71 -101 -18 hvcurveto
          -100 -18 61 -71 104 hhcurveto
          103 83 71 100 18 hvcurveto
          101 18 -59 71 -103 hhcurveto
          -21 -119 rmoveto
          30 18 -22 -31 -5 hvcurveto
          -31 -6 -25 -21 -30 hhcurveto
          -32 -21 21 31 6 hvcurveto
          31 5 28 22 32 hhcurveto
          endchar
        </CharString>
        <CharString name="dvAcandra">
          179 231 493 rmoveto
          -37 callgsubr
          203 hlineto
          215 callsubr
          -280 -54 callsubr
          786 554 52 callgsubr
          endchar
        </CharString>
        <CharString name="dvAnusvara">
          -666 38 912 34 callgsubr
        </CharString>
        <CharString name="dvAnusvara.amI">
          -666 254 912 34 callgsubr
        </CharString>
        <CharString name="dvAvagraha">
          -56 280 37 rmoveto
          105 93 56 106 19 hvcurveto
          32 184 -197 44 10 56 rrcurveto
          16 2 15 2 10 hhcurveto
          191 hlineto
          30 171 rlineto
          -243 hlineto
          -107 -83 -55 -102 -18 hvcurveto
          -32 -181 197 -46 -10 -58 rrcurveto
          -17 -3 -13 -6 -22 hhcurveto
          -237 hlineto
          -30 -170 rlineto
          endchar
        </CharString>
        <CharString name="dvB">
          -297 572 288 rmoveto
          128 19 -81 110 -176 -18 callgsubr
          185 103 113 137 20 hvcurveto
          -248 101 rmoveto
          64 37 -45 -62 -11 hvcurveto
          -2 -9 -2 -8 -3 -8 -147 115 rcurveline
          11 19 22 6 23 hhcurveto
          303 182 rmoveto
          -101 callsubr
          -603 -107 callgsubr
          262 -395 rmoveto
          -59 -44 41 65 11 195 callsubr
          7 147 -113 rcurveline
          -10 -18 -21 -6 -23 hhcurveto
          endchar
        </CharString>
        <CharString name="dvBA">
          21 557 hmoveto
          -49 callgsubr
          -709 -107 callgsubr
          437 hlineto
          118 callsubr
          -148 -111 -88 -138 -24 hvcurveto
          -145 -25 81 -114 142 -15 callsubr
          endchar
        </CharString>
        <CharString name="dvBH">
          -107 101 callsubr
          206 hlineto
          29 166 rlineto
          -206 -58 callgsubr
        </CharString>
        <CharString name="dvBHA">
          223 251 208 rmoveto
          -27 -20 15 33 6 hvcurveto
          33 6 29 16 37 hhcurveto
          37 hlineto
          -7 -39 rlineto
          -32 -6 -18 -26 -37 hhcurveto
          253 69 rmoveto
          5 28 rlineto
          98 hlineto
          -54 -305 rlineto
          204 hlineto
          101 571 rlineto
          78 hlineto
          29 169 rlineto
          -282 hlineto
          -47 -269 rlineto
          -98 -58 callgsubr
        </CharString>
        <CharString name="dvBH_LA">
          809 101 callsubr
          78 hlineto
          -3 -10 121 callgsubr
          -151 -59 callsubr
          -888 -107 callgsubr
          528 59 callgsubr
          -51 -54 -12 -29 -47 hvcurveto
          -166 -58 callgsubr
        </CharString>
        <CharString name="dvBH_NA">
          736 101 callsubr
          77 hlineto
          -2 -9 -2 -9 -2 -9 rrcurveto
          -138 -24 96 -101 138 -85 callsubr
          76 hlineto
          30 169 rlineto
          -814 -107 callgsubr
          534 120 callsubr
          -45 -43 -6 -14 -38 hvcurveto
          -204 -72 callsubr
          260 -11 133 callgsubr
        </CharString>
        <CharString name="dvBH_R">
          -107 253 225 68 callsubr
          250 71 rmoveto
          4 21 rlineto
          207 hlineto
          -525 -416 300 callsubr
          276 236 32 180 rlineto
          0 vlineto
          28 162 rlineto
          -210 hlineto
          3 17 68 callgsubr
          -10 -55 rlineto
          -46 hlineto
          -133 -125 -64 -147 -25 hvcurveto
          153 callgsubr
          endchar
        </CharString>
        <CharString name="dvBH_RA">
          243 253 225 68 callsubr
          250 71 rmoveto
          169 callgsubr
          -12 -69 rlineto
          183 hlineto
          100 571 rlineto
          78 hlineto
          30 169 rlineto
          -272 hlineto
          -46 -261 rlineto
          -132 hlineto
          3 17 68 callgsubr
          -10 -55 rlineto
          -46 hlineto
          -133 -125 -64 -147 -25 hvcurveto
          153 callgsubr
          endchar
        </CharString>
        <CharString name="dvBH_R_YA">
          642 253 225 68 callsubr
          250 71 rmoveto
          4 21 rlineto
          70 hlineto
          -4 -38 2 -34 9 -31 -395 -313 rcurveline
          220 hlineto
          246 210 rlineto
          -31 42 56 -17 69 -5 callsubr
          -129 hlineto
          4 25 68 callgsubr
          -11 -63 rlineto
          -45 hlineto
          -133 -125 -62 -141 -25 hvcurveto
          153 callgsubr
          378 -64 33 callsubr
          endchar
        </CharString>
        <CharString name="dvBH_VA">
          549 845 203 -94 callsubr
          -594 5 rmoveto
          -27 -20 15 33 6 hvcurveto
          33 6 29 16 37 hhcurveto
          37 hlineto
          -7 -39 rlineto
          -32 -6 -18 -26 -37 hhcurveto
          253 69 rmoveto
          5 28 rlineto
          77 hlineto
          -2 -1 -1 -2 vvcurveto
          -156 -30 73 -103 137 hhcurveto
          52 48 17 35 37 hvcurveto
          -16 -93 rlineto
          199 hlineto
          100 571 rlineto
          76 hlineto
          30 169 rlineto
          -628 hlineto
          -30 -169 rlineto
          353 hlineto
          -19 -106 rlineto
          34 -26 -44 18 -55 hhcurveto
          -62 -52 -16 -30 -41 hvcurveto
          -149 -58 callgsubr
        </CharString>
        <CharString name="dvBH_YA">
          642 251 208 -47 callsubr
          630 24 33 callsubr
          -377 45 rmoveto
          5 28 rlineto
          67 hlineto
          -148 -11 96 -94 161 -5 callsubr
          -125 -58 callgsubr
        </CharString>
        <CharString name="dvB_BA">
          408 324 389 rmoveto
          64 37 -45 -62 -11 hvcurveto
          -2 -9 -2 -8 -3 -8 -147 115 rcurveline
          11 19 22 6 23 hhcurveto
          620 -389 rmoveto
          -49 callgsubr
          -1096 -107 callgsubr
          824 hlineto
          118 callsubr
          -72 -64 -21 -37 -48 hvcurveto
          37 -41 -60 23 -81 -18 callgsubr
          84 67 23 39 50 hvcurveto
          -38 35 52 -23 63 hhcurveto
          58 53 15 31 37 hvcurveto
          -15 -85 rlineto
          -462 176 rmoveto
          -59 -44 41 65 11 195 callsubr
          7 147 -113 rcurveline
          -10 -18 -21 -6 -23 hhcurveto
          398 6 5 callgsubr
          37 213 4 callsubr
          endchar
        </CharString>
        <CharString name="dvB_BHA">
          611 639 -27 callsubr
          -29 -27 -3 -6 -24 hvcurveto
          -612 -107 callgsubr
          683 hlineto
          3 5 6 2 6 252 callsubr
          -43 hlineto
          -54 -53 -11 -23 -45 hvcurveto
          209 callgsubr
          77 63 20 32 48 hvcurveto
          -34 36 55 -20 69 hhcurveto
          158 96 189 callsubr
          -568 112 -72 callgsubr
          endchar
        </CharString>
        <CharString name="dvB_BH_RA">
          635 324 389 -72 callgsubr
          359 49 68 callsubr
          58 346 rmoveto
          4 6 7 2 8 296 callgsubr
          -10 -55 rlineto
          -46 hlineto
          -58 -56 -12 -25 -47 hvcurveto
          51 -38 -68 33 -97 -18 callgsubr
          86 69 25 40 51 hvcurveto
          -28 35 51 -16 63 hhcurveto
          153 99 100 137 24 hvcurveto
          169 callgsubr
          -12 -69 rlineto
          100 callsubr
          -29 -27 -3 -6 -25 hvcurveto
          -615 170 callgsubr
        </CharString>
        <CharString name="dvB_DA">
          335 324 389 -72 callgsubr
          760 395 243 callsubr
          -1023 -107 callgsubr
          724 245 callgsubr
          -15 hlineto
          -76 -68 -18 -36 -53 hvcurveto
          43 -40 -64 27 -87 -18 callgsubr
          79 65 21 34 49 hvcurveto
          -33 32 45 -16 47 136 callsubr
        </CharString>
        <CharString name="dvB_DHA">
          459 213 callsubr
          -19 -5 -20 hhcurveto
          881 397 rmoveto
          -51 callgsubr
          -25 -23 244 callsubr
          -551 19 callgsubr
          434 253 callgsubr
          -45 -13 -61 -35 -24 -70 -2 -6 -3 -8 -4 141 callgsubr
          77 70 25 49 53 hvcurveto
          -31 37 54 -16 63 288 callsubr
          204 hlineto
          101 571 rlineto
          endchar
        </CharString>
        <CharString name="dvB_DH_VA">
          814 213 callsubr
          -20 -5 -19 hhcurveto
          1159 397 79 callgsubr
          -603 -107 callgsubr
          328 112 callsubr
          -130 -89 -74 -115 -32 hvcurveto
          -66 -21 -39 -31 -92 -61 callgsubr
          -25 -23 244 callsubr
          -551 19 callgsubr
          434 304 callgsubr
          -46 -12 -61 -31 -22 -71 rrcurveto
          0 vlineto
          -3 -9 -3 -9 -5 141 callgsubr
          80 74 28 53 53 hvcurveto
          -38 47 73 -18 83 hhcurveto
          86 68 22 39 51 hvcurveto
          -53 30 56 -30 74 -52 callsubr
          -240 203 -94 callsubr
          endchar
        </CharString>
        <CharString name="dvB_JA">
          562 287 176 7 callgsubr
        </CharString>
        <CharString name="dvB_JHA">
          713 287 176 293 callsubr
          1 8 3 8 2 8 152 -117 rcurveline
          -9 -19 -21 -4 -25 hhcurveto
          394 163 rmoveto
          -21 -8 8 14 2 hvcurveto
          15 2 14 8 19 hhcurveto
          253 hlineto
          26 144 rlineto
          0 vlineto
          7 43 rlineto
          173 hlineto
          -41 -232 rlineto
          142 -339 rmoveto
          -49 callgsubr
          -1401 -107 callgsubr
          755 hlineto
          -7 -43 rlineto
          -103 hlineto
          -105 -89 -53 -112 -19 hvcurveto
          -4 -22 -6 -35 -11 -31 -16 -27 rlinecurve
          -160 125 rlineto
          13 23 28 6 30 hhcurveto
          19 19 -2 -5 20 hvcurveto
          23 132 rlineto
          6 -24 -34 3 -21 hhcurveto
          -199 -93 258 callgsubr
          -23 hvcurveto
          -138 -24 94 -112 166 hhcurveto
          144 84 72 102 45 hvcurveto
          19 -8 21 -4 21 -1 rrcurveto
          -2 32 76 0 47 hhcurveto
          39 12 -15 -21 -4 hvcurveto
          -20 -4 -15 -13 -26 hhcurveto
          -24 -17 12 28 4 hvcurveto
          -173 hlineto
          -45 -257 rlineto
          183 hlineto
          16 94 rlineto
          -13 19 34 -12 44 hhcurveto
          100 71 63 89 15 hvcurveto
          3 20 1 18 -1 17 rrcurveto
          97 hlineto
          -33 -187 rlineto
          endchar
        </CharString>
        <CharString name="dvB_J_YA">
          1015 324 389 rmoveto
          64 37 -45 -62 -11 hvcurveto
          -1 -9 -3 -8 -3 -8 -147 115 rcurveline
          11 20 21 6 23 hhcurveto
          -37 -213 293 callsubr
          2 8 2 8 3 8 148 -115 rcurveline
          -9 -18 -21 -6 -23 hhcurveto
          967 56 38 callsubr
          -1703 -107 callgsubr
          1111 103 callgsubr
          -31 -10 18 29 2 hvcurveto
          120 13 -79 101 -178 hhcurveto
          -178 -114 -98 -130 -22 hvcurveto
          -138 -26 85 -122 178 hhcurveto
          90 73 29 45 54 hvcurveto
          -20 28 42 -12 57 hhcurveto
          134 90 77 115 36 64 callsubr
          endchar
        </CharString>
        <CharString name="dvB_JxA">
          562 681 -77 rmoveto
          -97 callgsubr
          -394 253 7 callgsubr
        </CharString>
        <CharString name="dvB_LA">
          615 1219 127 callsubr
          -1303 -107 callgsubr
          943 59 callgsubr
          -48 -52 -14 -35 -44 hvcurveto
          39 -40 -62 24 -82 -18 callgsubr
          71 58 16 28 47 hvcurveto
          -48 34 59 -29 82 -93 callgsubr
          -933 -75 rmoveto
          -59 -44 41 65 11 195 callsubr
          7 147 -113 rcurveline
          -10 -18 -21 -6 -23 hhcurveto
          38 213 rmoveto
          64 37 -45 -62 -11 hvcurveto
          -2 -9 -2 -8 -3 -8 -147 115 rcurveline
          11 19 22 6 23 hhcurveto
          endchar
        </CharString>
        <CharString name="dvB_L_YA">
          1080 286 176 rmoveto
          -59 -44 41 65 11 195 callsubr
          7 147 -113 rcurveline
          -10 -18 -21 -6 -23 hhcurveto
          1033 56 rmoveto
          -72 -34 39 43 4 hvcurveto
          110 20 45 80 16 87 13 70 rcurveline
          111 205 callgsubr
          -54 -63 -90 hhcurveto
          473 339 rmoveto
          -101 callsubr
          -1768 -107 callgsubr
          1176 hlineto
          -6 -32 -6 -31 -8 -30 -19 -23 rlinecurve
          38 -33 -48 19 -55 hhcurveto
          -92 -65 -37 -57 -40 hvcurveto
          -42 callsubr
          -49 -52 -14 -34 -44 hvcurveto
          38 -40 -61 24 -82 -18 callgsubr
          73 60 18 29 48 hvcurveto
          -49 34 57 -31 79 -78 callgsubr
          31 18 -18 -30 2 hvcurveto
          -136 -3 80 -86 155 hhcurveto
          78 63 22 37 47 hvcurveto
          -21 -122 -86 callgsubr
          -1392 -182 rmoveto
          64 37 -45 -62 -11 hvcurveto
          -2 -9 -2 -8 -3 -8 -147 115 rcurveline
          11 19 22 6 23 hhcurveto
          endchar
        </CharString>
        <CharString name="dvB_NA">
          570 598 266 -99 callgsubr
          -274 123 -72 callgsubr
          996 395 rmoveto
          -101 callsubr
          -1258 -107 callgsubr
          978 120 callsubr
          -63 -60 -13 -28 -49 hvcurveto
          46 -39 -66 30 -91 -18 callgsubr
          84 67 23 39 50 hvcurveto
          -39 38 56 -22 65 -85 callsubr
          endchar
        </CharString>
        <CharString name="dvB_R">
          -297 627 -62 callgsubr
          -603 -107 callgsubr
          548 -283 rmoveto
          128 19 -81 110 -176 hhcurveto
          -179 -110 258 callgsubr
          -18 hvcurveto
          -18 -128 73 -105 145 -15 -108 -108 rcurveline
          202 hlineto
          174 194 42 44 26 57 9 61 rlinecurve
          -248 101 -72 callgsubr
          endchar
        </CharString>
        <CharString name="dvB_RA">
          20 361 hmoveto
          196 hlineto
          -35 callgsubr
          75 -87 callsubr
          -708 -107 callgsubr
          437 hlineto
          118 callsubr
          -142 -117 -88 -138 -24 hvcurveto
          81 callsubr
        </CharString>
        <CharString name="dvB_SA">
          549 324 389 -72 callgsubr
          562 344 -4 callsubr
          -1237 -107 callgsubr
          629 hlineto
          -9 -51 -9 -49 -20 -40 -63 -13 rlinecurve
          64 -34 -73 44 -111 -18 callgsubr
          65 55 14 24 44 hvcurveto
          -52 33 60 -33 87 -95 callgsubr
          12 68 rlineto
          312 hlineto
          -47 -269 3 callgsubr
        </CharString>
        <CharString name="dvB_SHA">
          596 900 233 16 callsubr
          -34 -32 -4 -9 -29 hvcurveto
          1 4 rlineto
          -603 -107 callgsubr
          690 hlineto
          1 4 5 270 callsubr
          -77 hhcurveto
          -38 hlineto
          209 callgsubr
          68 56 15 26 46 hvcurveto
          -54 37 70 -31 91 60 callgsubr
          -576 156 -72 callgsubr
          845 -176 45 callgsubr
        </CharString>
        <CharString name="dvB_TA">
          438 324 389 -72 callgsubr
          864 395 rmoveto
          -101 callsubr
          -1126 -107 callgsubr
          845 173 callsubr
          -70 -70 -14 -33 -57 hvcurveto
          52 -38 -68 33 -97 -18 callgsubr
          72 59 17 29 47 hvcurveto
          -58 46 79 -25 77 -22 callgsubr
        </CharString>
        <CharString name="dvB_VA">
          384 680 203 -94 callsubr
          -356 186 -72 callgsubr
          840 564 rmoveto
          -1072 -107 callgsubr
          797 -8 callsubr
          -62 -53 -18 -32 -40 hvcurveto
          37 -41 -60 22 -79 -18 callgsubr
          81 66 22 36 49 hvcurveto
          -35 32 48 -20 60 -74 callgsubr
          endchar
        </CharString>
        <CharString name="dvB_YA">
          483 1195 -62 callgsubr
          -1171 -107 callgsubr
          579 215 callgsubr
          54 -38 -69 36 -100 hhcurveto
          -179 -110 -108 -130 -18 hvcurveto
          102 callsubr
          436 56 106 callgsubr
        </CharString>
        <CharString name="dvC">
          -226 420 344 rmoveto
          214 callsubr
          88 -60 144 hhcurveto
          193 126 117 192 32 hvcurveto
          -177 hlineto
          -15 -86 -40 -51 -68 -2 219 callsubr
          333 227 rmoveto
          -101 callsubr
          -683 170 callgsubr
        </CharString>
        <CharString name="dvCA">
          99 811 -62 callgsubr
          -787 -107 callgsubr
          507 158 callsubr
          -24 -24 -15 -30 -6 -35 rrcurveto
          -115 -21 74 -68 114 123 callsubr
        </CharString>
        <CharString name="dvCH">
          162 873 571 51 callsubr
          132 23 -65 85 -130 27 callsubr
          -114 -26 30 40 7 hvcurveto
          28 5 24 23 38 hhcurveto
          15 hlineto
          29 162 rlineto
          -19 hlineto
          -36 -7 25 33 6 hvcurveto
          7 41 rlineto
          endchar
        </CharString>
        <CharString name="dvCHA">
          161 873 571 51 callsubr
          17 97 -31 71 -68 32 10 56 rcurveline
          -332 -382 -83 callsubr
          endchar
        </CharString>
        <CharString name="dvCH_R">
          161 873 571 185 callsubr
          -21 -102 61 -74 108 -36 -124 188 callgsubr
          146 43 90 100 24 132 rlinecurve
          132 23 -65 85 -130 27 callsubr
          -114 -26 30 40 7 hvcurveto
          28 5 24 23 38 hhcurveto
          15 hlineto
          29 162 rlineto
          -19 hlineto
          -36 -7 25 33 6 hvcurveto
          7 41 rlineto
          endchar
        </CharString>
        <CharString name="dvCH_RA">
          161 373 189 -83 callsubr
          500 382 185 callsubr
          -21 -102 61 -74 108 -36 -124 188 callgsubr
          146 43 90 100 24 132 282 callgsubr
        </CharString>
        <CharString name="dvCH_R_YA">
          -7 callgsubr
          -21 -102 61 -75 108 -35 -123 188 callgsubr
          65 19 54 31 41 39 rlinecurve
          210 callsubr
        </CharString>
        <CharString name="dvCH_YA">
          -7 callgsubr
          rrcurveto
          -145 -30 136 -90 202 hhcurveto
          148 115 42 71 75 hvcurveto
          210 callsubr
        </CharString>
        <CharString name="dvC_CA">
          442 369 240 rmoveto
          -40 -26 17 36 6 hvcurveto
          35 7 30 16 28 hhcurveto
          126 hlineto
          -11 -11 -9 -13 -8 -14 rrcurveto
          -38 -23 -30 -28 -50 hhcurveto
          785 331 rmoveto
          -101 callsubr
          -1130 -107 callgsubr
          850 hlineto
          -35 -199 -17 -82 -40 -48 -66 -2 rlinecurve
          238 callgsubr
          -717 hlineto
          -28 -159 rlineto
          111 hlineto
          -23 -24 -16 -30 -6 -35 rrcurveto
          -114 -21 85 -71 117 hhcurveto
          73 59 24 43 49 hvcurveto
          -42 29 53 -23 66 123 callsubr
        </CharString>
        <CharString name="dvC_CHA">
          581 793 189 -83 callsubr
          500 382 rmoveto
          -101 callsubr
          -1269 -107 callgsubr
          494 hlineto
          -9 -50 -13 -76 28 -39 43 -15 rlinecurve
          -4 vlineto
          -41 -18 -32 -26 -21 -35 -22 -36 -34 -30 -45 80 callsubr
          106 -63 125 hhcurveto
          59 54 17 31 45 hvcurveto
          -65 49 102 -37 130 160 callsubr
        </CharString>
        <CharString name="dvC_CH_VA">
          581 737 -137 rmoveto
          -47 -22 34 42 8 hvcurveto
          41 8 32 36 51 hhcurveto
          0 vlineto
          24 24 2 2 22 hvcurveto
          -16 -91 rlineto
          -36 -6 -35 -30 -43 hhcurveto
          56 326 -83 callsubr
          500 382 rmoveto
          -101 callsubr
          -1269 -107 callgsubr
          494 hlineto
          -9 -50 -13 -76 28 -39 43 -15 rlinecurve
          -4 vlineto
          -41 -18 -32 -26 -21 -35 -22 -36 -34 -30 -45 80 callsubr
          106 -63 125 hhcurveto
          59 54 17 31 45 hvcurveto
          19 -25 27 -22 34 -16 -38 -31 -26 -46 -10 -58 -18 -105 61 -102 128 -5 54 -2 45 15 35 31 -16 -91 rcurveline
          181 hlineto
          74 417 92 53 58 82 18 102 282 callgsubr
        </CharString>
        <CharString name="dvC_MA">
          658 1071 -53 callsubr
          680 363 rmoveto
          -101 callsubr
          -1346 -107 callgsubr
          780 194 callsubr
          -114 -109 -49 -111 -44 hvcurveto
          -44 -22 -37 -27 -49 hhcurveto
          -39 -26 18 35 6 hvcurveto
          78 callgsubr
          -121 -22 96 -64 124 hhcurveto
          66 56 18 34 47 hvcurveto
          -54 32 64 -32 87 -30 callsubr
        </CharString>
        <CharString name="dvC_NA">
          623 651 95 callgsubr
          -1311 -107 callgsubr
          1031 120 callsubr
          -126 -111 -50 -123 -41 hvcurveto
          -19 -48 -35 -28 -51 80 callsubr
          109 -63 122 hhcurveto
          65 60 21 38 48 hvcurveto
          -56 36 66 -34 81 -85 callsubr
          endchar
        </CharString>
        <CharString name="dvC_R">
          -226 707 -62 callgsubr
          -683 -107 callgsubr
          396 -227 rmoveto
          64 callgsubr
          -24 -24 -15 -30 -6 -35 -20 -113 70 -60 121 -10 -118 -118 257 callsubr
          189 212 52 53 34 72 15 88 rlinecurve
          -177 hlineto
          -15 -86 -40 -51 -68 -2 219 callsubr
          endchar
        </CharString>
        <CharString name="dvC_RA">
          99 811 -62 callgsubr
          -787 -107 callgsubr
          507 hlineto
          -35 -196 -15 -82 -40 -51 -68 -2 rlinecurve
          219 callsubr
          46 hlineto
          29 159 rlineto
          -374 hlineto
          -29 -159 rlineto
          111 hlineto
          -24 -24 -15 -30 -6 -35 -14 -83 39 -57 70 -23 -138 -138 257 callsubr
          162 182 2 1 2 2 2 2 rlinecurve
          -25 -141 3 callgsubr
        </CharString>
        <CharString name="dvC_YA">
          551 790 175 callsubr
          473 339 rmoveto
          30 169 rlineto
          -1239 -107 callgsubr
          647 17 callsubr
          -5 -18 -5 -17 -4 -17 -20 -77 -39 -43 -62 -2 -41 -1 -28 18 108 callgsubr
          -125 -22 107 -60 124 hhcurveto
          84 69 28 51 53 hvcurveto
          -54 41 70 -32 90 hhcurveto
          71 88 callgsubr
        </CharString>
        <CharString name="dvCandrabindu">
          -666 212 1040 rmoveto
          -163 hlineto
          -52 -9 -44 -38 -62 hhcurveto
          -63 -31 38 52 9 hvcurveto
          -161 hlineto
          -153 -28 106 -80 151 hhcurveto
          168 101 80 153 26 hvcurveto
          -186 22 rmoveto
          40 7 -25 33 -43 hhcurveto
          -39 -39 -33 -40 -7 hvcurveto
          -41 -7 27 -32 39 hhcurveto
          43 37 32 41 7 hvcurveto
          endchar
        </CharString>
        <CharString name="dvD">
          -54 580 -325 13 callgsubr
          289 896 243 callsubr
          -635 -29 callgsubr
          endchar
        </CharString>
        <CharString name="dvDA">
          -49 662 242 callgsubr
          -635 -29 callgsubr
          endchar
        </CharString>
        <CharString name="dvDA_mvR">
          -55 559 197 rmoveto
          -170 hlineto
          -45 -8 -29 -33 -60 hhcurveto
          -40 -16 12 20 3 hvcurveto
          15 3 11 14 37 hhcurveto
          33 hlineto
          26 148 rlineto
          -23 hlineto
          -35 -25 3 26 5 hvcurveto
          25 4 26 3 34 hhcurveto
          196 hlineto
          33 186 rlineto
          106 -87 callsubr
          -643 -107 callgsubr
          343 hlineto
          -8 -46 rlineto
          -89 hlineto
          -99 -85 -36 -101 -19 hvcurveto
          -12 -65 37 -54 55 -16 -1 -4 rcurveline
          -71 -16 -43 -47 -10 -57 rrcurveto
          -112 -19 106 -49 139 hhcurveto
          166 115 79 150 27 hvcurveto
          endchar
        </CharString>
        <CharString name="dvDD">
          -104 418 -305 13 callgsubr
          398 876 rmoveto
          29 169 rlineto
          -582 -64 callgsubr
          189 hlineto
          33 187 rlineto
          endchar
        </CharString>
        <CharString name="dvDDA">
          -104 609 571 rmoveto
          29 169 rlineto
          -582 -64 callgsubr
          189 hlineto
          33 187 rlineto
          endchar
        </CharString>
        <CharString name="dvDDH">
          0 471 -300 13 callgsubr
          448 871 rmoveto
          -101 callsubr
          -686 hlineto
          -30 -169 rlineto
          347 -67 callsubr
          130 243 callgsubr
          endchar
        </CharString>
        <CharString name="dvDDHA">
          0 712 -62 callgsubr
          -686 hlineto
          -30 -169 rlineto
          347 -67 callsubr
          130 243 callgsubr
          endchar
        </CharString>
        <CharString name="dvDDH_DDHA">
          13 725 -62 callgsubr
          -701 -107 callgsubr
          343 hlineto
          -7 -37 rlineto
          -7 hlineto
          -153 -128 -88 -151 -27 hvcurveto
          -15 -86 26 -65 54 -43 -69 -39 -48 -64 -15 -84 rrcurveto
          -161 -29 124 -86 170 hhcurveto
          179 105 69 120 21 hvcurveto
          91 16 -59 64 -113 hhcurveto
          -98 -72 -44 -82 -15 hvcurveto
          -2 -11 -1 -14 1 -14 rrcurveto
          130 hlineto
          -1 4 -1 4 1 4 rrcurveto
          11 3 10 11 16 hhcurveto
          18 7 -11 -15 -3 hvcurveto
          -40 -8 -47 -15 -59 hhcurveto
          -96 -24 54 62 11 hvcurveto
          80 14 70 43 81 hhcurveto
          0 vlineto
          147 118 69 120 21 hvcurveto
          91 16 -53 64 -117 hhcurveto
          -99 -73 -43 -83 -15 hvcurveto
          -2 -11 0 -14 -14 vvcurveto
          130 hlineto
          -1 4 0 4 4 vvcurveto
          11 12 11 18 17 7 -11 -16 -2 vhcurveto
          -39 -5 -51 -15 -59 hhcurveto
          -96 -23 54 62 11 hvcurveto
          80 14 69 43 81 hhcurveto
          119 hlineto
          29 162 rlineto
          endchar
        </CharString>
        <CharString name="dvDDH_R">
          0 460 -406 13 callgsubr
          459 977 26 callgsubr
        </CharString>
        <CharString name="dvDDH_RA">
          0 712 571 26 callgsubr
        </CharString>
        <CharString name="dvDDH_VA">
          3 715 -62 callgsubr
          -691 -107 callgsubr
          343 hlineto
          -6 -37 rlineto
          -7 hlineto
          -153 -129 -88 -151 -27 hvcurveto
          -16 -90 24 -68 50 -43 -55 -35 -38 -56 -11 -64 rrcurveto
          -112 -20 59 -91 139 hhcurveto
          52 47 18 33 37 hvcurveto
          -24 -135 rlineto
          170 hlineto
          80 453 39 31 25 41 9 50 rlinecurve
          91 16 -52 64 -116 hhcurveto
          -99 -73 -43 -83 -15 hvcurveto
          -2 -11 -1 -14 270 callgsubr
          11 3 9 11 17 hhcurveto
          17 7 -11 -16 -3 hvcurveto
          -39 -7 -49 -15 -58 hhcurveto
          -96 -23 54 62 11 hvcurveto
          80 14 70 43 81 hhcurveto
          119 hlineto
          28 162 rlineto
          -284 -680 rmoveto
          -47 -22 32 39 7 hvcurveto
          57 10 53 19 50 hhcurveto
          17 17 1 1 17 hvcurveto
          -14 -75 rlineto
          0 vlineto
          -41 -7 -34 -33 -47 hhcurveto
          endchar
        </CharString>
        <CharString name="dvDDH_YA">
          692 1227 288 callgsubr
          -1378 hlineto
          -30 -169 rlineto
          347 -67 callsubr
          371 hlineto
          26 25 -12 -33 -5 hvcurveto
          -27 -5 -27 -13 -29 hhcurveto
          -56 hlineto
          -1 -6 -2 -7 -1 -6 rrcurveto
          -180 -32 107 -63 113 hhcurveto
          69 51 22 33 38 hvcurveto
          -18 -100 rlineto
          -70 196 rmoveto
          -41 -19 17 20 -8 hvcurveto
          66 16 50 41 13 71 rrcurveto
          98 17 -50 65 -169 hhcurveto
          -260 hlineto
          8 47 rlineto
          564 hlineto
          -48 -269 rlineto
          -74 -16 -57 -32 -50 hhcurveto
          endchar
        </CharString>
        <CharString name="dvDDHxA">
          0 712 -62 callgsubr
          -686 hlineto
          -30 -169 rlineto
          347 -67 callsubr
          130 243 callgsubr
          -185 -746 rmoveto
          -97 callgsubr
          endchar
        </CharString>
        <CharString name="dvDD_DDA">
          -95 617 -62 callgsubr
          -593 -107 callgsubr
          304 165 callgsubr
          -193 hlineto
          -8 -45 19 -36 34 -24 -35 -21 -24 -30 -7 -41 rrcurveto
          -103 -19 83 -37 136 hhcurveto
          31 38 0 -36 -6 hvcurveto
          -23 -4 -21 -13 -33 hhcurveto
          -31 -27 13 29 2 hvcurveto
          -193 hlineto
          -114 -13 101 -58 140 hhcurveto
          151 100 59 109 20 hvcurveto
          124 23 -89 34 -145 hhcurveto
          -36 -22 1 20 3 hvcurveto
          14 2 14 6 25 hhcurveto
          164 106 59 108 19 hvcurveto
          122 21 -84 198 callsubr
        </CharString>
        <CharString name="dvDD_DDHA">
          -87 625 -62 callgsubr
          -591 hlineto
          -30 -169 rlineto
          303 165 callgsubr
          -194 hlineto
          -8 -48 21 -37 38 -24 -68 -35 -48 -62 -15 -85 rrcurveto
          -165 -29 124 -82 166 hhcurveto
          172 102 71 118 19 hvcurveto
          91 15 -57 64 -112 hhcurveto
          -99 -70 -44 -82 -16 hvcurveto
          -2 -10 -1 -15 270 callgsubr
          12 3 10 10 15 hhcurveto
          18 7 -11 -15 -3 hvcurveto
          -40 -8 -48 -15 -58 hhcurveto
          -96 -24 51 58 11 hvcurveto
          14 74 62 40 77 10 153 20 86 47 18 101 rrcurveto
          122 22 -85 198 callsubr
        </CharString>
        <CharString name="dvDD_R">
          -104 402 -411 230 callsubr
          414 982 32 callgsubr
        </CharString>
        <CharString name="dvDD_RA">
          -104 609 571 32 callgsubr
        </CharString>
        <CharString name="dvDD_VA">
          -85 390 -348 rmoveto
          77 439 22 25 14 30 6 35 rlinecurve
          19 111 -69 46 -120 7 -52 3 -37 -8 7 31 rrcurveto
          19 4 16 6 18 hhcurveto
          191 hlineto
          17 95 rlineto
          0 vlineto
          14 80 rlineto
          110 -87 callsubr
          -603 -107 callgsubr
          304 hlineto
          -8 -44 rlineto
          -52 hlineto
          -105 -86 -49 -96 -17 hvcurveto
          -143 -25 133 -17 73 hhcurveto
          46 38 -2 -38 -6 hvcurveto
          -25 -4 -22 -13 -33 hhcurveto
          -31 -25 15 23 hvcurveto
          -194 hlineto
          -9 -48 21 -44 42 -31 -56 -32 -37 -56 -12 -65 rrcurveto
          -110 -20 62 -79 115 hhcurveto
          47 42 13 25 33 hvcurveto
          -18 -103 rlineto
          -30 206 rmoveto
          -37 -25 27 43 8 hvcurveto
          54 10 39 29 54 hhcurveto
          15 15 1 1 15 hvcurveto
          -18 -103 rlineto
          -30 -9 -30 -22 -37 hhcurveto
          endchar
        </CharString>
        <CharString name="dvDD_YA">
          567 1103 hmoveto
          166 callgsubr
          -1253 -64 callgsubr
          363 hlineto
          21 24 -11 -28 -5 hvcurveto
          -26 -5 -25 -12 -25 hhcurveto
          -62 hlineto
          -1 -7 -1 -6 -1 -6 rrcurveto
          -180 -32 107 -63 113 hhcurveto
          69 51 22 34 38 hvcurveto
          -18 -101 rlineto
          -71 196 rmoveto
          -41 -19 17 19 -7 hvcurveto
          74 18 44 51 10 59 rrcurveto
          94 17 -50 67 -169 hhcurveto
          -185 hlineto
          8 50 rlineto
          490 hlineto
          -46 -260 rlineto
          0 vlineto
          -81 -15 -59 -34 -52 hhcurveto
          endchar
        </CharString>
        <CharString name="dvDDxA">
          -104 609 571 rmoveto
          29 169 rlineto
          -582 -64 callgsubr
          189 hlineto
          33 187 rlineto
          -192 -752 rmoveto
          -97 callgsubr
          endchar
        </CharString>
        <CharString name="dvDH">
          -240 658 326 rmoveto
          -178 hlineto
          -55 -10 -46 -40 -93 -66 callgsubr
          rrcurveto
          -132 -24 120 -64 155 hhcurveto
          221 118 104 159 27 hvcurveto
          endchar
        </CharString>
        <CharString name="dvDHA">
          87 800 571 rmoveto
          -51 callgsubr
          -111 -86 -61 -116 -19 hvcurveto
          -17 -95 273 callsubr
          rrcurveto
          -123 -21 94 -63 125 288 callsubr
          204 hlineto
          101 571 rlineto
          endchar
        </CharString>
        <CharString name="dvDH_MA">
          658 690 -75 callsubr
          680 363 rmoveto
          -101 callsubr
          -820 -107 callgsubr
          254 194 callsubr
          -111 -107 -47 -105 -46 hvcurveto
          -62 -30 -36 -26 -82 -66 callgsubr
          rrcurveto
          -132 -24 120 -64 155 hhcurveto
          79 64 18 33 49 hvcurveto
          -49 33 62 -29 83 -13 callgsubr
          -223 -100 114 callsubr
          endchar
        </CharString>
        <CharString name="dvDH_NA">
          619 1331 -62 callgsubr
          -782 -107 callgsubr
          502 120 callsubr
          -126 -111 -50 -122 -40 hvcurveto
          -60 -23 -35 -28 -85 -66 callgsubr
          rrcurveto
          -132 -24 120 -64 155 hhcurveto
          85 65 23 42 49 hvcurveto
          -55 36 66 -34 80 -85 callsubr
          -608 -305 133 callgsubr
        </CharString>
        <CharString name="dvDH_N_YA">
          1059 1771 -62 callgsubr
          -1222 -107 callgsubr
          630 265 callgsubr
          -114 -101 -41 -98 -49 hvcurveto
          0 vlineto
          -6 -12 rlineto
          -43 -21 -36 -33 -82 -66 callgsubr
          rrcurveto
          -132 -23 119 -64 155 hhcurveto
          73 58 18 32 46 hvcurveto
          -66 34 71 -41 88 hhcurveto
          116 104 206 callgsubr
          33 -2 28 -6 24 rrcurveto
          94 hlineto
          -140 7 90 162 callgsubr
          -1059 -338 -37 callsubr
          662 -1 rmoveto
          -60 -32 36 48 -7 hvcurveto
          99 29 54 76 15 81 279 callgsubr
          -80 -14 -54 -63 -90 hhcurveto
          endchar
        </CharString>
        <CharString name="dvDH_R">
          -240 658 326 rmoveto
          -178 hlineto
          -55 -10 -46 -40 -93 -66 callgsubr
          -24 -131 118 -64 153 -1 -139 -138 257 callsubr
          215 241 40 42 25 55 11 63 rlinecurve
          endchar
        </CharString>
        <CharString name="dvDH_RA">
          87 423 hmoveto
          -88 callgsubr
          72 hlineto
          -51 callgsubr
          -111 -86 -61 -116 -19 hvcurveto
          -17 -95 273 callsubr
          -18 -103 69 -60 101 -13 260 callgsubr
        </CharString>
        <CharString name="dvDH_VA">
          441 1077 571 79 callgsubr
          -603 -107 callgsubr
          328 112 callsubr
          -130 -89 -74 -115 -32 hvcurveto
          -66 -21 -39 -31 -92 -66 callgsubr
          rrcurveto
          -132 -24 120 -64 155 hhcurveto
          86 68 22 39 51 hvcurveto
          -53 30 56 -30 74 -52 callsubr
          -240 203 -94 callsubr
          endchar
        </CharString>
        <CharString name="dvDH_YA">
          543 1255 -62 callgsubr
          -705 -107 callgsubr
          113 8 callgsubr
          rrcurveto
          -74 -13 -56 -40 -82 hhcurveto
          -42 -43 7 36 4 hvcurveto
          34 4 36 -71 callsubr
          -111 -85 -61 -116 -20 hvcurveto
          -16 -95 148 callsubr
          102 76 30 52 52 hvcurveto
          -52 42 68 -30 88 hhcurveto
          71 -91 callsubr
          -397 -339 30 callsubr
        </CharString>
        <CharString name="dvD_BA">
          141 callsubr
          rrcurveto
          -114 -20 59 -101 141 hhcurveto
          58 53 21 44 40 hvcurveto
          -22 266 callgsubr
          -6 -26 -30 -42 hhcurveto
          -38 -21 28 39 7 hvcurveto
          43 8 35 284 callgsubr
          40 224 callsubr
          -96 rcurveline
          -13 -17 -20 -8 -21 hhcurveto
          31 170 rmoveto
          38 4 32 14 24 23 -20 -109 rcurveline
          0 vlineto
          -1 -8 -2 -7 -3 -7 -109 82 rcurveline
          13 4 13 3 15 1 rrcurveto
          endchar
        </CharString>
        <CharString name="dvD_BHA">
          829 579 -325 13 callgsubr
          290 896 243 callsubr
          -635 -29 callgsubr
          288 -363 -46 callsubr
          98 hlineto
          -54 -305 -86 callgsubr
          78 87 callgsubr
          -282 182 callgsubr
          -98 -58 callgsubr
        </CharString>
        <CharString name="dvD_B_RA">
          141 callsubr
          -15 -86 30 -79 76 -33 -119 -116 rcurveline
          208 hlineto
          144 157 2 2 2 3 2 2 rlinecurve
          -21 266 callgsubr
          -7 -26 -30 -42 hhcurveto
          -38 -20 28 39 7 hvcurveto
          43 8 34 27 55 hhcurveto
          201 hlineto
          41 224 callsubr
          -95 rcurveline
          -14 -17 -20 -8 -21 hhcurveto
          31 170 rmoveto
          37 4 32 14 24 23 -20 -115 rcurveline
          -2 -2 -7 -3 -7 vhcurveto
          -109 82 13 4 13 3 15 1 rlinecurve
          endchar
        </CharString>
        <CharString name="dvD_DA">
          -78 470 -108 rmoveto
          48 271 rlineto
          -169 hlineto
          -24 -4 -20 -24 -45 hhcurveto
          -40 -10 18 16 3 hvcurveto
          17 3 13 12 30 hhcurveto
          39 hlineto
          25 143 rlineto
          -35 hlineto
          -30 -19 9 21 4 hvcurveto
          24 4 23 6 29 hhcurveto
          161 hlineto
          34 190 rlineto
          130 -87 callsubr
          -611 -107 callgsubr
          281 hlineto
          -10 -56 rlineto
          -7 -8 0 -7 hhcurveto
          -103 -99 -35 -106 -19 hvcurveto
          -11 -65 36 -46 56 -14 -1 -4 rcurveline
          -67 -16 -46 -50 -11 -61 rrcurveto
          -111 -19 91 -42 79 hhcurveto
          57 40 17 22 27 hvcurveto
          -20 -112 rlineto
          endchar
        </CharString>
        <CharString name="dvD_DHA">
          272 983 242 callgsubr
          -946 19 callgsubr
          646 245 callgsubr
          -16 hlineto
          -165 -115 -83 -145 -27 hvcurveto
          -12 -72 11 -54 24 -38 rrcurveto
          -70 -22 -42 -43 -53 hhcurveto
          -34 -17 200 callsubr
          41 hhcurveto
          29 166 -184 13 -96 -76 -19 -107 rlinecurve
          303 callgsubr
          -13 -66 -45 -15 -87 rrcurveto
          -121 -22 95 -62 123 hhcurveto
          140 117 80 126 44 hvcurveto
          -1 6 7 0 7 hhcurveto
          45 39 12 22 30 hvcurveto
          -22 -122 rlineto
          199 hlineto
          55 311 rlineto
          -189 hlineto
          -35 -6 -25 -28 -38 hhcurveto
          -37 -20 24 38 7 hvcurveto
          41 7 34 29 51 hhcurveto
          199 174 callsubr
          endchar
        </CharString>
        <CharString name="dvD_GA">
          32 770 -62 callgsubr
          -720 -107 callgsubr
          433 255 callsubr
          -75 16 -64 42 -40 -18 -99 rcurveline
          -23 -4 -8 -29 -28 hhcurveto
          -24 -4 19 20 4 286 callsubr
          -2 -10 rrcurveto
          -127 -23 83 -63 120 hhcurveto
          146 72 92 126 21 hvcurveto
          9 52 25 6 23 12 18 14 rlinecurve
          -67 -382 rlineto
          187 hlineto
          99 565 rlineto
          -176 hlineto
          -36 -6 -27 -30 -41 hhcurveto
          -39 -19 28 39 7 hvcurveto
          43 7 34 283 callgsubr
        </CharString>
        <CharString name="dvD_GHA">
          271 257 5 rmoveto
          -32 -19 200 callsubr
          31 hhcurveto
          15 15 -3 -5 17 hvcurveto
          -4 -12 -4 -13 -2 -14 -12 -71 11 -54 25 -39 rrcurveto
          -69 -23 -41 -43 -53 hhcurveto
          725 566 243 callsubr
          -955 -107 callgsubr
          656 245 callgsubr
          -15 hlineto
          -75 -68 -18 -35 -53 hvcurveto
          23 -42 -55 16 -56 hhcurveto
          -156 -82 -73 -99 -18 hvcurveto
          303 callgsubr
          -12 -66 -40 -15 -87 rrcurveto
          -121 -21 94 -68 123 hhcurveto
          149 110 80 126 42 hvcurveto
          -1 6 6 0 6 hhcurveto
          46 39 12 23 30 hvcurveto
          -22 -123 rlineto
          199 hlineto
          55 311 rlineto
          -189 hlineto
          -35 -6 -24 -28 -39 hhcurveto
          -37 -19 24 38 7 hvcurveto
          41 8 32 29 52 hhcurveto
          198 174 callsubr
          endchar
        </CharString>
        <CharString name="dvD_G_RA">
          32 744 -62 callgsubr
          -720 -107 callgsubr
          432 255 callsubr
          -74 16 -64 42 -41 -9 -48 rcurveline
          -23 -4 -8 -29 -28 hhcurveto
          -24 -3 19 20 3 286 callsubr
          -1 -10 rrcurveto
          -128 -13 56 -62 126 hhcurveto
          146 83 92 126 21 hvcurveto
          1 vlineto
          25 6 22 11 18 15 -24 -138 rcurveline
          -363 -305 rlineto
          196 hlineto
          149 136 -13 -75 rlineto
          175 hlineto
          100 565 rlineto
          -176 hlineto
          -36 -7 -27 -30 -41 hhcurveto
          -39 -19 28 39 7 hvcurveto
          43 8 33 283 callgsubr
        </CharString>
        <CharString name="dvD_MA">
          232 136 -163 rmoveto
          43 8 37 9 29 hhcurveto
          37 hlineto
          -6 -35 rlineto
          -39 -7 -19 -26 -35 hhcurveto
          -33 -16 21 27 5 hvcurveto
          326 217 rmoveto
          38 210 rlineto
          -224 hlineto
          -28 -15 14 22 4 hvcurveto
          22 4 20 15 28 hhcurveto
          198 hlineto
          41 234 rlineto
          130 hlineto
          -91 -517 rlineto
          377 517 rmoveto
          -101 callsubr
          -920 -107 callgsubr
          305 245 callgsubr
          -23 hlineto
          -127 -105 -48 -148 -26 hvcurveto
          -134 -24 90 -78 124 hhcurveto
          59 hlineto
          -8 -47 rlineto
          -23 hlineto
          -130 -136 -42 -166 -29 hvcurveto
          -139 -26 98 -86 136 hhcurveto
          156 80 98 153 27 hvcurveto
          3 16 rlineto
          104 hlineto
          -50 -281 307 callsubr
          170 963 rlineto
          endchar
        </CharString>
        <CharString name="dvD_NA">
          765 579 -325 13 callgsubr
          421 591 -1 callsubr
          -1449 -29 callgsubr
          628 120 callsubr
          -139 -121 -61 -152 -28 hvcurveto
          -138 -24 96 -101 138 -85 callsubr
          endchar
        </CharString>
        <CharString name="dvD_R">
          -49 581 -325 13 callgsubr
          288 896 243 callsubr
          -635 225 callsubr
          -19 -107 35 -69 56 -35 -1 callgsubr
        </CharString>
        <CharString name="dvD_RA">
          -49 662 242 callgsubr
          -635 225 callsubr
          -19 -107 35 -69 56 -35 -1 callgsubr
        </CharString>
        <CharString name="dvD_VA">
          -49 663 -62 callgsubr
          -639 -107 callgsubr
          346 245 callgsubr
          -16 hlineto
          -156 -123 -80 -139 -25 hvcurveto
          103 callsubr
          -360 -660 196 callsubr
          endchar
        </CharString>
        <CharString name="dvD_YA">
          54 287 174 rmoveto
          -41 -16 12 23 4 hvcurveto
          18 3 16 13 26 hhcurveto
          52 hlineto
          27 153 rlineto
          -52 hlineto
          -26 -13 12 19 4 hvcurveto
          18 4 17 10 24 hhcurveto
          53 hlineto
          21 119 rlineto
          99 hlineto
          -48 -275 rlineto
          -89 -20 -70 -33 -64 hhcurveto
          479 397 rmoveto
          -101 callsubr
          -741 -107 callgsubr
          171 hlineto
          -8 -49 -45 -2 -67 -26 -12 -74 rlinecurve
          -10 -54 30 -37 58 -13 -1 -6 rcurveline
          -61 -17 -44 -41 -11 -65 rrcurveto
          -104 -19 84 -59 122 hhcurveto
          85 63 25 42 45 hvcurveto
          -16 -91 227 callsubr
        </CharString>
        <CharString name="dvE">
          -14 698 -62 callgsubr
          -675 172 callsubr
          46 callgsubr
          endchar
        </CharString>
        <CharString name="dvEcandra">
          -13 679 1041 rmoveto
          -174 hlineto
          -50 -9 -32 -34 -62 hhcurveto
          -63 -19 34 50 9 hvcurveto
          -174 hlineto
          -142 -25 64 -91 182 hhcurveto
          181 97 91 142 25 hvcurveto
          -8 -470 rmoveto
          -101 callsubr
          -675 172 callsubr
          46 callgsubr
          endchar
        </CharString>
        <CharString name="dvEight">
          30 callgsubr
        </CharString>
        <CharString name="dvEyelash">
          -275 397 428 rmoveto
          -13 -25 -30 -12 -42 hhcurveto
          -49 -36 23 62 6 hvcurveto
          -194 hlineto
          -169 -23 111 -61 131 hhcurveto
          77 79 25 36 56 hvcurveto
          46 252 136 callgsubr
          -502 19 callgsubr
          endchar
        </CharString>
        <CharString name="dvEyelash_HA">
          193 778 273 callgsubr
          -871 -107 callgsubr
          557 285 callgsubr
          -94 -62 -44 -62 -22 hvcurveto
          -2 -8 -9 -1 -11 hhcurveto
          -46 -25 29 41 7 hvcurveto
          -193 hlineto
          -146 -22 97 -83 118 hhcurveto
          47 32 8 10 25 hvcurveto
          -44 -34 -32 -50 -12 -65 rrcurveto
          -149 -27 99 -100 150 -76 callsubr
        </CharString>
        <CharString name="dvEyelash_YA">
          367 606 175 callsubr
          473 339 rmoveto
          30 169 rlineto
          -1055 -107 callgsubr
          463 hlineto
          -6 -31 -11 -62 -22 -56 -96 -7 rlinecurve
          0 vlineto
          -46 -3 -59 24 11 62 rrcurveto
          -193 hlineto
          -24 -172 119 -65 142 -2 rrcurveto
          -120 12 90 -76 140 hhcurveto
          71 88 callgsubr
        </CharString>
        <CharString name="dvFive">
          72 callsubr
        </CharString>
        <CharString name="dvFour">
          125 callsubr
        </CharString>
        <CharString name="dvG">
          -66 635 -62 callgsubr
          -611 -104 callgsubr
          endchar
        </CharString>
        <CharString name="dvGA">
          193 728 hmoveto
          89 callsubr
          -881 -104 callgsubr
          93 hlineto
          -100 -571 rlineto
          endchar
        </CharString>
        <CharString name="dvGH">
          -299 630 -62 callgsubr
          -606 138 callsubr
          -110 -20 85 -79 163 hhcurveto
          182 118 124 143 26 hvcurveto
          -173 hlineto
          -55 -10 -35 -47 -78 hhcurveto
          -32 -21 13 26 4 hvcurveto
          24 5 19 16 36 callgsubr
          endchar
        </CharString>
        <CharString name="dvGHA">
          25 296 45 callsubr
          -713 128 callgsubr
          -18 -54 -48 -13 -73 rrcurveto
          -115 -20 90 -67 109 hhcurveto
          63 57 18 38 46 hvcurveto
          -25 -143 rlineto
          205 hlineto
          -35 callgsubr
          endchar
        </CharString>
        <CharString name="dvGH_MA">
          585 998 -53 callsubr
          -321 44 rmoveto
          -29 -24 14 27 5 hvcurveto
          24 4 20 14 36 callgsubr
          428 194 callsubr
          -107 -102 -43 -96 -49 hvcurveto
          -7 -13 rlineto
          -58 -32 -38 -9 -39 hhcurveto
          1001 319 rmoveto
          -101 callsubr
          -1273 128 callgsubr
          -17 -54 -43 -13 -73 rrcurveto
          -121 -23 96 -67 133 hhcurveto
          59 56 13 30 43 hvcurveto
          -59 31 65 -35 92 -30 callsubr
        </CharString>
        <CharString name="dvGH_NA">
          554 582 266 -99 callgsubr
          -286 -14 rmoveto
          -29 -24 14 27 5 hvcurveto
          24 4 20 14 36 callgsubr
          683 120 callsubr
          -118 -106 -44 -107 -46 hvcurveto
          -10 -21 rlineto
          -60 -30 -41 -7 -39 hhcurveto
          970 319 rmoveto
          -101 callsubr
          -1242 128 callgsubr
          -17 -54 -43 -13 -73 rrcurveto
          -121 -23 96 -67 133 hhcurveto
          66 62 16 39 46 hvcurveto
          -63 34 70 -40 87 -85 callsubr
          endchar
        </CharString>
        <CharString name="dvGH_R">
          -299 630 -62 callgsubr
          -606 138 callsubr
          -18 -98 66 -74 131 -14 -136 -136 rcurveline
          217 hlineto
          202 224 48 48 32 62 12 66 rlinecurve
          -173 hlineto
          -55 -10 -35 -47 -78 hhcurveto
          -32 -21 13 26 4 hvcurveto
          24 5 19 16 36 callgsubr
          endchar
        </CharString>
        <CharString name="dvGH_RA">
          25 296 45 callsubr
          -713 128 callgsubr
          -18 -54 -48 -13 -73 -15 -88 48 -59 73 -24 -145 -144 257 callsubr
          165 184 -24 -138 rlineto
          205 hlineto
          -35 callgsubr
          endchar
        </CharString>
        <CharString name="dvGH_YA">
          479 296 252 rmoveto
          -32 -21 13 26 4 hvcurveto
          24 5 19 16 36 callgsubr
          297 39 callsubr
          -23 -5 -20 -4 -22 rrcurveto
          -54 -14 -31 -43 -78 hhcurveto
          422 -20 -102 callsubr
          473 339 rmoveto
          30 169 rlineto
          -1167 138 callsubr
          -110 -20 85 -79 163 hhcurveto
          76 65 22 35 52 hvcurveto
          -51 41 69 -30 87 hhcurveto
          71 88 callgsubr
        </CharString>
        <CharString name="dvG_BA">
          552 1088 hmoveto
          -49 callgsubr
          -1240 -104 callgsubr
          461 hlineto
          118 callsubr
          -148 -111 -88 -138 -24 hvcurveto
          -145 -25 81 -114 142 hhcurveto
          58 53 15 31 37 hvcurveto
          -15 -85 rlineto
          -64 182 5 callgsubr
          37 213 4 callsubr
          endchar
        </CharString>
        <CharString name="dvG_BHA">
          756 783 -27 callsubr
          -29 -27 -3 -6 -24 hvcurveto
          -756 -104 callgsubr
          319 hlineto
          3 5 6 2 7 -9 callgsubr
          endchar
        </CharString>
        <CharString name="dvG_BH_YA">
          1174 1413 232 20 callsubr
          -756 -104 callgsubr
          101 hlineto
          -2 -8 -2 -9 -2 -9 -64 callsubr
          endchar
        </CharString>
        <CharString name="dvG_DA">
          481 1192 242 callgsubr
          -1169 -104 callgsubr
          363 99 callsubr
          endchar
        </CharString>
        <CharString name="dvG_DHA">
          602 1142 hmoveto
          72 callgsubr
          -693 -104 callgsubr
          70 hlineto
          -17 -94 273 callsubr
          rrcurveto
          -123 -21 94 -63 125 274 callsubr
        </CharString>
        <CharString name="dvG_DH_VA">
          955 1491 hmoveto
          -49 callgsubr
          -603 -107 callgsubr
          328 112 callsubr
          -130 -89 -74 -115 -32 hvcurveto
          -66 -21 -39 -31 -92 -61 callgsubr
          -25 -23 244 callsubr
          -691 -104 callgsubr
          68 hlineto
          -16 -94 148 callsubr
          86 68 22 39 51 hvcurveto
          -53 30 56 -30 74 hhcurveto
          52 48 17 35 37 hvcurveto
          -16 -93 rlineto
          -41 203 -94 callsubr
          endchar
        </CharString>
        <CharString name="dvG_DH_YA">
          1059 1298 232 22 callgsubr
          -693 -104 callgsubr
          70 hlineto
          -16 -94 148 callsubr
          102 76 30 52 52 hvcurveto
          -52 42 68 -30 88 204 callsubr
          endchar
        </CharString>
        <CharString name="dvG_GA">
          726 1261 hmoveto
          89 callsubr
          -1414 -104 callgsubr
          329 hlineto
          -36 -207 rlineto
          -25 -4 -9 -31 -29 hhcurveto
          -26 -4 22 34 6 hvcurveto
          6 32 rlineto
          -197 hlineto
          -3 -11 121 callgsubr
          -154 -28 94 -74 138 hhcurveto
          160 83 102 136 23 hvcurveto
          34 198 rlineto
          93 hlineto
          -100 -571 rlineto
          endchar
        </CharString>
        <CharString name="dvG_GHA">
          553 824 45 callsubr
          -1241 -104 callgsubr
          96 hlineto
          -5 -29 -13 -75 28 -39 44 -16 rlinecurve
          -4 vlineto
          -49 -18 -54 -48 -13 -73 rrcurveto
          -115 -20 90 -67 109 hhcurveto
          63 57 18 38 46 hvcurveto
          -25 -143 rlineto
          205 hlineto
          -35 callgsubr
          endchar
        </CharString>
        <CharString name="dvG_JA">
          743 1455 -62 callgsubr
          -1431 -104 callgsubr
          644 hlineto
          -16 -90 rlineto
          -266 66 callgsubr
          -54 -308 157 callsubr
          100 571 rlineto
          endchar
        </CharString>
        <CharString name="dvG_LA">
          786 1390 127 callsubr
          -1474 -104 callgsubr
          607 hlineto
          -12 -67 -56 -14 -42 -31 -29 -41 rlinecurve
          -3 hlineto
          54 -21 -53 40 -89 hhcurveto
          -116 -130 -63 -176 -30 hvcurveto
          -151 -48 callsubr
          rrcurveto
          endchar
        </CharString>
        <CharString name="dvG_MA">
          752 1165 -53 callsubr
          680 363 rmoveto
          -101 callsubr
          -1440 -104 callgsubr
          367 134 callsubr
        </CharString>
        <CharString name="dvG_NA">
          712 740 95 callgsubr
          -1400 -104 callgsubr
          613 120 callsubr
          -139 -121 -61 -152 -28 hvcurveto
          -138 -24 96 -101 138 -85 callsubr
          endchar
        </CharString>
        <CharString name="dvG_NNA">
          770 817 291 -26 callsubr
          665 280 rmoveto
          -101 callsubr
          -1458 -104 callgsubr
          95 159 callsubr
        </CharString>
        <CharString name="dvG_N_YA">
          1156 733 233 -99 callgsubr
          662 -1 rmoveto
          -60 -32 36 48 -8 hvcurveto
          100 28 55 77 14 81 -50 callgsubr
          -1844 -104 callgsubr
          745 82 callgsubr
        </CharString>
        <CharString name="dvG_R">
          71 callsubr
          endchar
        </CharString>
        <CharString name="dvG_RA">
          193 729 hmoveto
          -49 callgsubr
          -880 -32 callsubr
          94 hlineto
          -40 -226 -453 -365 rlineto
          234 hlineto
          189 162 -25 -142 rlineto
          endchar
        </CharString>
        <CharString name="dvG_R_YA">
          633 872 175 callsubr
          473 339 rmoveto
          30 169 rlineto
          -1320 -32 callsubr
          222 8 callgsubr
          -1 -4 0 -4 -1 -4 -438 -353 rcurveline
          234 hlineto
          227 194 rlineto
          -70 38 76 -41 103 hhcurveto
          71 88 callgsubr
        </CharString>
        <CharString name="dvG_SA">
          702 1001 520 -4 callsubr
          -1390 -104 callgsubr
          275 hlineto
          -9 -51 rlineto
          -61 -11 -28 -46 -104 hhcurveto
          -63 hlineto
          -33 -190 15 callgsubr
        </CharString>
        <CharString name="dvG_VA">
          526 822 203 19 callsubr
          -1214 -104 callgsubr
          432 -8 callsubr
          -137 -89 -86 -131 -23 hvcurveto
          55 callsubr
          endchar
        </CharString>
        <CharString name="dvG_YA">
          631 870 175 callsubr
          473 339 rmoveto
          30 169 rlineto
          -1319 -104 callgsubr
          220 61 callsubr
        </CharString>
        <CharString name="dvGx">
          -66 635 -62 callgsubr
          -611 -104 callgsubr
          -221 -594 rmoveto
          -97 callgsubr
          endchar
        </CharString>
        <CharString name="dvGxA">
          193 728 hmoveto
          89 callsubr
          -881 -104 callgsubr
          93 hlineto
          -100 -571 rlineto
          -214 -23 rmoveto
          -97 callgsubr
          endchar
        </CharString>
        <CharString name="dvGx_R">
          71 callsubr
          -384 -481 -24 callsubr
          endchar
        </CharString>
        <CharString name="dvGx_RA">
          193 729 hmoveto
          -49 callgsubr
          -880 -32 callsubr
          94 hlineto
          -40 -226 -453 -365 rlineto
          234 hlineto
          189 162 -25 -142 rlineto
          -383 90 -24 callsubr
          endchar
        </CharString>
        <CharString name="dvH">
          -82 420 -397 13 callgsubr
          301 928 31 callsubr
          -44 12 -37 32 -27 -54 -35 -39 -53 -13 -74 rrcurveto
          -149 -27 99 -100 150 -76 callsubr
        </CharString>
        <CharString name="dvHA">
          -72 514 531 31 callsubr
          -44 12 -37 32 -27 -54 -35 -39 -53 -13 -74 rrcurveto
          -149 -27 99 -100 150 -76 callsubr
        </CharString>
        <CharString name="dvHA_mU">
          -82 513 531 31 callsubr
          -44 12 -38 32 -27 -54 -34 -38 -53 -13 -71 rrcurveto
          -139 -25 96 -97 186 hhcurveto
          49 18 -21 -32 -6 hvcurveto
          -28 -5 -29 -21 -49 hhcurveto
          -50 -31 22 48 8 hvcurveto
          -180 hlineto
          -142 -26 125 -86 140 hhcurveto
          152 99 71 131 19 hvcurveto
          135 20 -75 81 -151 hhcurveto
          -52 -47 15 54 11 hvcurveto
          41 8 32 17 26 hhcurveto
          31 20 -22 -39 -7 hvcurveto
          191 hlineto
          122 22 -72 99 -152 210 callgsubr
        </CharString>
        <CharString name="dvHA_mUU">
          -82 513 531 rmoveto
          8 40 rlineto
          120 87 callgsubr
          -606 hlineto
          -29 164 callgsubr
          -49 hlineto
          -105 -65 -56 -73 -13 hvcurveto
          -8 -43 11 -37 31 -27 -52 -34 -37 -51 -13 -70 -11 -63 16 -50 36 -36 -32 -29 -22 -40 -9 -51 rrcurveto
          -132 -23 87 -80 110 hhcurveto
          37 hlineto
          239 callgsubr
          20 -56 -103 -17 hvcurveto
          -13 -77 rlineto
          164 hlineto
          5 23 5 23 4 25 rrcurveto
          147 24 -13 175 -235 hhcurveto
          -34 1 -28 17 9 51 rrcurveto
          41 7 33 17 26 hhcurveto
          31 23 -22 -45 -11 hvcurveto
          191 hlineto
          125 26 -72 102 -155 210 callgsubr
        </CharString>
        <CharString name="dvHA_mvR">
          16 670 498 rmoveto
          0 vlineto
          13 73 rlineto
          71 -87 callsubr
          -704 hlineto
          -30 269 callsubr
          -64 -54 -71 -13 hvcurveto
          -9 -52 18 -43 48 -27 -75 -47 -52 -76 -18 -104 -39 -219 151 -133 222 9 24 133 rcurveline
          -118 -109 52 140 25 hvcurveto
          109 19 76 65 110 hhcurveto
          60 35 -5 -16 18 hvcurveto
          1 -14 -13 0 -14 hhcurveto
          -118 -77 -56 -91 -16 hvcurveto
          -113 -20 87 -38 85 hhcurveto
          31 31 3 11 34 hvcurveto
          20 117 rlineto
          -5 -15 -27 -6 -28 hhcurveto
          -30 -26 9 28 5 hvcurveto
          22 4 19 16 33 hhcurveto
          180 hlineto
          147 24 -66 106 -186 hhcurveto
          -30 -29 -2 -5 -27 hvcurveto
          -14 4 -6 12 2 13 rrcurveto
          19 3 17 8 19 hhcurveto
          324 hlineto
          endchar
        </CharString>
        <CharString name="dvH_LA">
          50 670 498 rmoveto
          0 vlineto
          13 73 rlineto
          104 87 callgsubr
          -738 hlineto
          -29 269 callsubr
          -65 -54 -71 -12 hvcurveto
          -9 -52 18 -43 48 -27 -76 -47 -52 -76 -18 -104 -37 -208 142 -127 173 8 22 128 rcurveline
          -77 -95 50 131 23 hvcurveto
          112 20 79 67 113 hhcurveto
          69 35 -26 -34 14 hvcurveto
          -14 -8 -11 -11 -10 -13 rrcurveto
          -1 hlineto
          32 -14 -27 20 -48 hhcurveto
          -68 -74 -38 -97 -17 hvcurveto
          -86 -15 43 -61 99 hhcurveto
          3 7 0 1 9 hvcurveto
          18 101 rlineto
          -1 -6 -4 0 -4 hhcurveto
          -22 -14 13 29 5 hvcurveto
          21 4 15 13 17 hhcurveto
          19 8 -17 -20 -3 hvcurveto
          -3 -13 rlineto
          107 hlineto
          3 13 rlineto
          20 3 14 17 19 hhcurveto
          16 12 -13 -22 -4 hvcurveto
          -28 -5 -18 -13 -22 hhcurveto
          -4 -3 0 1 -5 hvcurveto
          -18 -101 rlineto
          -1 9 5 0 5 hhcurveto
          98 65 50 86 15 hvcurveto
          12 69 -27 44 -40 20 rrcurveto
          104 -9 -78 74 -145 hhcurveto
          -30 -29 -2 -5 -28 hvcurveto
          -14 280 callgsubr
          325 hlineto
          endchar
        </CharString>
        <CharString name="dvH_MA">
          731 217 callsubr
          357 194 callsubr
          -104 -101 -41 -92 -50 hvcurveto
          -248 266 callsubr
          481 -152 -23 callsubr
          -1409 93 callgsubr
          252 hlineto
          -87 15 74 -55 114 -30 callsubr
        </CharString>
        <CharString name="dvH_NA">
          692 217 callsubr
          604 120 callsubr
          -119 -106 -45 -108 -45 hvcurveto
          -241 266 callsubr
          438 -94 -1 callsubr
          -1370 93 callgsubr
          261 hlineto
          -84 24 79 -55 102 -85 callsubr
          endchar
        </CharString>
        <CharString name="dvH_NNA">
          59 346 5 rmoveto
          -13 -5 10 16 2 hvcurveto
          32 178 rlineto
          7 7 0 7 7 6 0 6 hhcurveto
          -32 -178 rlineto
          -16 -2 -10 -10 -12 hhcurveto
          351 493 rmoveto
          0 vlineto
          13 73 rlineto
          87 87 callgsubr
          -748 19 callgsubr
          489 hlineto
          -8 -44 rlineto
          -246 hlineto
          -105 -65 -54 -71 -12 hvcurveto
          -9 -52 17 -42 47 -27 -73 -45 -51 -72 -18 -102 -36 -208 140 -137 174 9 23 135 rcurveline
          -75 -91 43 131 23 hvcurveto
          11 66 14 49 45 29 -24 -136 rcurveline
          -74 -14 33 -61 91 hhcurveto
          90 53 58 77 14 hvcurveto
          24 135 35 -32 -9 -57 -14 -76 rlinecurve
          -19 -107 rlineto
          146 hlineto
          19 107 rlineto
          181 32 -56 145 -243 hhcurveto
          -33 -32 -2 -5 -31 hvcurveto
          -15 280 callgsubr
          352 hlineto
          endchar
        </CharString>
        <CharString name="dvH_R">
          -82 409 -429 13 callgsubr
          311 960 28 callsubr
        </CharString>
        <CharString name="dvH_RA">
          -82 513 531 28 callsubr
        </CharString>
        <CharString name="dvH_VA">
          -3 408 -5 rmoveto
          -26 -13 18 24 4 hvcurveto
          24 5 19 18 26 hhcurveto
          25 -1 11 -17 -3 -19 rrcurveto
          -5 -1 vlineto
          -23 -4 -17 -19 -26 hhcurveto
          -115 -269 rmoveto
          20 135 rlineto
          -70 -88 43 131 23 hvcurveto
          106 19 73 57 96 hhcurveto
          64 36 -22 -41 4 hvcurveto
          20 -15 -25 13 -34 hhcurveto
          -81 -64 -51 -80 -15 hvcurveto
          -69 -12 37 -63 88 hhcurveto
          38 33 16 26 24 hvcurveto
          -19 -105 rlineto
          145 hlineto
          39 221 rlineto
          152 27 -65 124 -204 hhcurveto
          -22 -22 -2 -3 -22 hvcurveto
          -13 5 -4 11 3 11 rrcurveto
          19 3 16 8 19 hhcurveto
          293 hlineto
          25 139 rlineto
          0 vlineto
          8 44 rlineto
          82 87 callgsubr
          -684 19 callgsubr
          427 hlineto
          -8 -44 rlineto
          -184 hlineto
          -105 -65 -54 -71 -12 hvcurveto
          -9 -52 18 -43 48 -27 -71 -46 -55 -74 -19 -105 -36 -208 140 -129 175 8 rrcurveto
          endchar
        </CharString>
        <CharString name="dvH_YA">
          237 528 23 rmoveto
          -29 -17 10 14 -9 hvcurveto
          39 15 35 32 11 62 rrcurveto
          109 19 -83 74 -142 hhcurveto
          -21 -21 -1 -3 -20 hvcurveto
          -11 6 -2 10 2 10 rrcurveto
          19 3 17 8 18 hhcurveto
          255 hlineto
          24 139 rlineto
          0 vlineto
          8 44 rlineto
          103 hlineto
          -79 -444 rlineto
          0 vlineto
          -52 -9 -24 -52 -67 hhcurveto
          233 -185 rmoveto
          129 733 rlineto
          79 -87 callsubr
          -925 -107 callgsubr
          384 hlineto
          -8 -44 rlineto
          -144 hlineto
          -106 -64 -54 -71 -13 hvcurveto
          -9 -49 16 -42 43 -27 -69 -43 -49 -69 -16 -93 -33 -190 137 -116 166 8 25 138 rcurveline
          -63 -80 36 108 19 hvcurveto
          83 15 59 46 71 hhcurveto
          44 20 -16 -24 -4 hvcurveto
          -25 -5 -16 -16 -54 hhcurveto
          -5 hlineto
          -3 -8 -1 -9 -2 -8 rrcurveto
          -109 -19 50 -90 134 hhcurveto
          57 44 17 29 34 hvcurveto
          -16 -95 rlineto
          endchar
        </CharString>
        <CharString name="dvI">
          -80 632 -62 callgsubr
          -601 107 callgsubr
          16 94 18 -13 33 -12 42 -1 rlinecurve
          105 -2 77 64 18 103 rrcurveto
          141 25 -96 54 -103 hhcurveto
          -43 132 callsubr
        </CharString>
        <CharString name="dvII">
          176 callgsubr
          2 14 8 18 hhcurveto
          191 hlineto
          19 106 rlineto
          1 hlineto
          15 81 rlineto
          117 -87 callsubr
          -124 hlineto
          11 61 rlineto
          41 7 12 20 27 hhcurveto
          22 10 -19 -41 -11 hvcurveto
          178 hlineto
          141 33 -60 87 -146 hhcurveto
          -178 -63 -129 -103 -19 hvcurveto
          -10 -58 rlineto
          -290 -107 callgsubr
          287 hlineto
          -8 -43 rlineto
          -46 hlineto
          -104 -88 -46 -112 -19 hvcurveto
          -20 -116 85 -50 74 275 callsubr
          38 13 -13 -23 -3 hvcurveto
          -20 -3 -17 -13 -25 hhcurveto
          -25 -17 12 29 4 278 callgsubr
          -45 -258 rlineto
          193 hlineto
          endchar
        </CharString>
        <CharString name="dvII_Anusvara">
          176 callgsubr
          3 13 8 18 hhcurveto
          191 hlineto
          26 144 rlineto
          0 vlineto
          7 43 rlineto
          117 -87 callsubr
          -122 hlineto
          13 72 rlineto
          53 9 37 38 51 hhcurveto
          51 20 -32 -29 -2 hvcurveto
          162 hlineto
          130 26 -88 87 -146 hhcurveto
          -197 -85 -139 -108 -18 hvcurveto
          -13 -72 rlineto
          -299 107 callgsubr
          496 906 rmoveto
          28 4 -17 22 -28 hhcurveto
          -28 -26 216 callsubr
          19 -22 27 hhcurveto
          28 27 22 27 4 hvcurveto
          endchar
        </CharString>
        <CharString name="dvJ">
          -104 703 308 rmoveto
          31 173 rlineto
          -378 -85 callgsubr
          225 263 rmoveto
          -101 callsubr
          -723 170 callgsubr
        </CharString>
        <CharString name="dvJA">
          74 callsubr
          endchar
        </CharString>
        <CharString name="dvJH">
          -111 740 -62 callgsubr
          -708 -84 callgsubr
          178 hlineto
          26 152 rlineto
          -415 132 callsubr
        </CharString>
        <CharString name="dvJHA">
          224 284 339 rmoveto
          -10 callgsubr
          144 168 callgsubr
          -904 -84 callgsubr
          97 hlineto
          -33 -187 rlineto
          endchar
        </CharString>
        <CharString name="dvJH_MA">
          763 1176 -53 callsubr
          -511 131 rmoveto
          -10 callgsubr
          394 194 callsubr
          -104 -100 -41 -91 -50 hvcurveto
          881 232 rmoveto
          -101 callsubr
          -1443 -84 callgsubr
          68 hlineto
          -93 11 75 -58 118 -30 callsubr
        </CharString>
        <CharString name="dvJH_NA">
          723 284 339 rmoveto
          -10 callgsubr
          640 120 callsubr
          -119 -105 -44 -108 -46 hvcurveto
          166 -73 -1 callsubr
          -1403 -84 callgsubr
          74 hlineto
          -89 22 81 -59 105 -85 callsubr
          endchar
        </CharString>
        <CharString name="dvJH_R">
          -111 817 -62 callgsubr
          -785 -84 callgsubr
          208 hlineto
          -353 -306 307 callsubr
          170 154 26 152 rlineto
          0 vlineto
          26 152 rlineto
          -491 132 callsubr
        </CharString>
        <CharString name="dvJH_RA">
          325 284 339 rmoveto
          -10 callgsubr
          245 168 callgsubr
          -1005 -84 callgsubr
          202 hlineto
          -1 -9 -343 -297 307 callsubr
          131 119 rlineto
          endchar
        </CharString>
        <CharString name="dvJH_YA">
          637 284 339 rmoveto
          -10 callgsubr
          242 8 callgsubr
          -1 -6 rcurveline
          301 -107 -102 callsubr
          473 339 rmoveto
          30 169 rlineto
          -1317 -84 callgsubr
          96 hlineto
          -77 35 79 -47 109 hhcurveto
          71 88 callgsubr
        </CharString>
        <CharString name="dvJ_BA">
          573 849 182 5 callgsubr
          260 -182 rmoveto
          -49 callgsubr
          -1259 -107 callgsubr
          987 hlineto
          118 callsubr
          -62 -55 -15 -28 -45 hvcurveto
          -347 -85 callgsubr
          60 hlineto
          -1 -3 0 -4 -1 -3 rrcurveto
          -145 -25 81 -114 142 46 callsubr
          endchar
        </CharString>
        <CharString name="dvJ_DA">
          502 1213 242 callgsubr
          -1188 -107 callgsubr
          889 245 callgsubr
          -15 hlineto
          -57 -53 -10 -21 -45 hvcurveto
          2 -378 vlineto
          -87 callgsubr
          63 hlineto
          -2 -9 -2 -9 -2 -9 rrcurveto
          4 callgsubr
        </CharString>
        <CharString name="dvJ_DDA">
          430 1143 241 callgsubr
          -1116 -107 callgsubr
          826 137 callgsubr
          -56 -52 -15 -30 -38 hvcurveto
          -298 -85 callgsubr
          63 hlineto
          -90 18 102 -21 59 -25 callsubr
        </CharString>
        <CharString name="dvJ_JA">
          770 1482 -62 callgsubr
          -1456 -107 callgsubr
          1176 hlineto
          -16 -90 rlineto
          -266 hlineto
          -19 callsubr
          -470 -85 callgsubr
          66 hlineto
          -138 -16 88 -90 147 73 callsubr
        </CharString>
        <CharString name="dvJ_JHA">
          767 827 339 rmoveto
          -10 callgsubr
          144 168 callgsubr
          -1453 -107 callgsubr
          835 hlineto
          -7 -43 rlineto
          -45 hlineto
          -60 -55 -14 -33 -40 hvcurveto
          -298 -85 callgsubr
          72 hlineto
          15 -74 67 -31 59 -4 rrcurveto
          -2 27 20 0 21 hhcurveto
          37 14 -15 -21 -3 hvcurveto
          -21 -3 -17 -12 -25 hhcurveto
          -25 -17 12 28 5 278 callgsubr
          -45 -257 rlineto
          192 hlineto
          16 94 rlineto
          -13 19 35 -12 44 hhcurveto
          99 71 63 89 16 hvcurveto
          3 20 1 18 -1 17 rrcurveto
          97 hlineto
          -33 -187 rlineto
          endchar
        </CharString>
        <CharString name="dvJ_J_NYA">
          751 1285 hmoveto
          -67 callgsubr
          77 -87 callsubr
          -1437 -107 callgsubr
          1159 hlineto
          -16 -90 rlineto
          -813 hlineto
          -69 callsubr
          152 104 99 139 25 hvcurveto
          309 hlineto
          33 25 -24 -39 -7 hvcurveto
          -28 -5 -23 -25 -40 hhcurveto
          -41 -17 27 33 2 hvcurveto
          -190 hlineto
          -52 -294 rlineto
          198 hlineto
          19 110 26 -26 42 -13 50 -3 rlinecurve
          107 -6 86 68 14 107 6 50 -11 37 -23 26 rrcurveto
          106 hlineto
          -56 -318 rlineto
          endchar
        </CharString>
        <CharString name="dvJ_J_VA">
          1120 1416 203 19 callsubr
          -1806 -107 callgsubr
          1531 -8 callsubr
          -53 -45 -13 -23 -38 hvcurveto
          -349 hlineto
          -19 callsubr
          -470 -85 callgsubr
          66 hlineto
          -138 -16 88 -90 147 261 callgsubr
          70 hlineto
          -1 -3 -1 -2 -3 83 callsubr
          endchar
        </CharString>
        <CharString name="dvJ_J_YA">
          1223 1462 232 38 callsubr
          -1909 -107 callgsubr
          1317 103 callgsubr
          -32 -12 23 44 8 hvcurveto
          21 116 rlineto
          -470 hlineto
          -21 -116 -38 callsubr
          21 116 rlineto
          -205 hlineto
          -21 -115 rlineto
          -149 -27 90 -97 153 hhcurveto
          133 96 76 112 39 hvcurveto
          77 hlineto
          -119 3 87 -69 128 hhcurveto
          135 97 77 115 38 64 callsubr
          endchar
        </CharString>
        <CharString name="dvJ_KA">
          840 1075 hmoveto
          -103 callsubr
          -1526 -107 callgsubr
          953 223 callgsubr
          rlineto
          32 -23 -41 19 -59 hhcurveto
          -48 -41 -11 -21 -36 hvcurveto
          -356 66 callgsubr
          -2 -8 -2 -8 -1 -9 50 callsubr
        </CharString>
        <CharString name="dvJ_MA">
          777 810 208 rmoveto
          -27 -21 16 33 6 hvcurveto
          32 6 29 16 36 hhcurveto
          38 hlineto
          -7 -38 rlineto
          -31 -5 -18 -28 -37 hhcurveto
          380 265 rmoveto
          -94 hlineto
          17 98 rlineto
          95 hlineto
          281 hmoveto
          -101 callsubr
          -1465 -107 callgsubr
          899 hlineto
          -17 -98 rlineto
          -552 hlineto
          -26 -148 -38 callsubr
          26 148 rlineto
          -205 hlineto
          -25 -146 rlineto
          -142 -26 78 -105 165 hhcurveto
          147 104 95 136 27 hvcurveto
          75 hlineto
          -10 -20 -7 -22 -4 -25 rrcurveto
          -125 -22 87 -83 137 hhcurveto
          161 94 96 146 26 hvcurveto
          5 27 63 callsubr
          endchar
        </CharString>
        <CharString name="dvJ_NA">
          738 766 256 -37 callsubr
          684 315 rmoveto
          -101 callsubr
          -1424 -107 callgsubr
          1144 hlineto
          -16 -90 rlineto
          -798 66 callgsubr
          -4 -13 -3 -13 -3 -14 rrcurveto
          187 callsubr
          240 callsubr
          89 hlineto
          -55 -312 3 callgsubr
        </CharString>
        <CharString name="dvJ_NY">
          -114 757 -62 callgsubr
          -731 -107 callgsubr
          688 -245 rmoveto
          28 162 rlineto
          -476 39 callgsubr
          endchar
        </CharString>
        <CharString name="dvJ_NYA">
          203 737 hmoveto
          -67 callgsubr
          77 -87 callsubr
          -889 -107 callgsubr
          611 hlineto
          -15 -83 rlineto
          -356 39 callgsubr
          100 hlineto
          -58 -326 rlineto
          endchar
        </CharString>
        <CharString name="dvJ_NY_YA">
          665 904 175 callsubr
          473 339 rmoveto
          30 169 rlineto
          -1351 -107 callgsubr
          759 hlineto
          -6 -31 -7 -40 -12 -38 -33 -23 rlinecurve
          32 -35 -55 17 -78 hhcurveto
          -293 39 callgsubr
          34 hlineto
          40 27 -11 -40 4 hvcurveto
          -129 5 92 -83 146 hhcurveto
          71 88 callgsubr
        </CharString>
        <CharString name="dvJ_R">
          70 callgsubr
          endchar
        </CharString>
        <CharString name="dvJ_RA">
          61 callgsubr
          endchar
        </CharString>
        <CharString name="dvJ_TA">
          611 1323 -62 callgsubr
          -1297 -107 callgsubr
          1016 hlineto
          -15 -83 rlineto
          -670 hlineto
          -29 -163 -38 callsubr
          29 163 rlineto
          -205 hlineto
          -29 -162 rlineto
          -148 -26 89 264 callgsubr
          151 103 97 138 26 hvcurveto
          74 hlineto
          -9 -20 -6 -23 -4 -24 rrcurveto
          70 callsubr
        </CharString>
</ttFont>
